<svg width="36px" height="36px" viewBox="0 0 36 36">
  <g id="Assets" stroke="none" stroke-width="1" fill="none" fill-rule="evenodd" stroke-linecap="round" stroke-linejoin="round">
      <g id="image/add-entity" stroke="#5D86CA" stroke-width="2">
          <g id="Group-3" transform="translate(1.000000, 2.000000)">
              <path d="M3.66161251,5.01604021 L15.6471749,0.263038363 C16.531574,-0.0876794543 17.5826145,-0.0876794543 18.4670135,0.263038363 L30.4525759,5.01604021 C31.9595064,5.61362945 32.5498725,7.03558468 31.7711956,8.19206613 C31.5462249,8.52618984 31.220337,8.81414778 30.8207551,9.03188515 L18.8351927,15.562975 C17.7703545,16.1432193 16.3438339,16.1432193 15.2789957,15.562975 L3.29343331,9.03188515 C1.91038584,8.27824448 1.58528615,6.80685642 2.56730283,5.74544794 C2.85102123,5.43879214 3.22623917,5.18869213 3.66161251,5.01604021 Z" id="Rectangle-314"></path>
              <path d="M32.6961671,11.2784026 C33.9664938,11.7821642 34.0479295,12.7073215 32.8845425,13.3412662 L19.2339842,20.7796342 C18.0676943,21.4151608 16.1738621,21.4135789 15.0104751,20.7796342 L1.35991676,13.3412662 C0.193626949,12.7057396 0.286405858,11.778817 1.54829216,11.2784026" id="Rectangle-314"></path>
              <path d="M17,12 L17,4" id="Rectangle-314"></path>
              <path d="M17,12 L17,4" id="Rectangle-314" transform="translate(17.000000, 8.000000) rotate(-270.000000) translate(-17.000000, -8.000000) "></path>
              <path d="M32.6961671,16.5817274 C33.9664938,17.085489 34.0479295,18.0106463 32.8845425,18.644591 L19.2339842,26.082959 C18.0676943,26.7184856 16.1738621,26.7169038 15.0104751,26.082959 L1.35991676,18.644591 C0.193626949,18.0090644 0.286405858,17.0821418 1.54829216,16.5817274" id="Rectangle-314"></path>
              <path d="M32.6961671,21.8850523 C33.9664938,22.3888138 34.0479295,23.3139711 32.8845425,23.9479158 L19.2339842,31.3862838 C18.0676943,32.0218104 16.1738621,32.0202286 15.0104751,31.3862838 L1.35991676,23.9479158 C0.193626949,23.3123893 0.286405858,22.3854667 1.54829216,21.8850523" id="Rectangle-314"></path>
          </g>
      </g>
  </g>
</svg>
