<svg xmlns="http://www.w3.org/2000/svg" width="52" height="48" viewBox="0 0 52 48">
  <g fill="#FF9800" transform="translate(0 .5)">
    <path d="M25.2026959 29.8356025C25.3726539 30.2307021 25.6551826 30.4006601 26.0502822 30.4006601 26.3901982 30.4006601 26.6153397 30.1755185 26.8404586 29.7781927 27.1229874 29.1557253 27.5180756 27.2928437 27.9705737 24.2401769 28.4230604 21.1323605 28.6481906 18.7595709 28.6481906 17.0645113 28.6481906 13.8992851 27.8006044 12.3740818 26.0480219 12.3740818 24.2402899 12.3740818 23.3927036 13.9566949 23.3927036 17.0645113 23.3927036 19.1547721 23.6752324 21.697531 24.1277304 24.6927879 24.5802172 27.630635 24.9201106 29.3832175 25.2026394 29.8357155L25.2026959 29.8356025zM25.9926463 32.7733366C25.2576195 32.7733366 24.6374123 33.0558654 24.0723548 33.6209229 23.5072973 34.1859804 23.2247685 34.8084478 23.2247685 35.5986243 23.2247685 36.3336511 23.5072973 37.0112681 24.0149449 37.5189158 24.5800025 38.0839733 25.2024698 38.3665021 25.9926463 38.3665021 26.7276731 38.3665021 27.4052901 38.0839733 27.9703476 37.5189158 28.5354052 36.9538582 28.8179339 36.3313909 28.8179339 35.5986243 28.8179339 34.8635974 28.5354052 34.2433903 27.9703476 33.6783328 27.3478803 33.0558654 26.7276731 32.7733366 25.9926463 32.7733366z"/>
    <path d="M50.5150129,36.558657 L32.0381968,4.01247351 C30.7955223,1.80965324 28.5352921,0.452159034 25.9926463,0.452159034 C23.4500004,0.452159034 21.1896573,1.75224339 19.9470958,4.01247351 L1.47027969,36.558657 C0.225401448,38.763681 0.282754787,41.361646 1.52546151,43.5094297 C2.76816823,45.6572133 5.02836614,46.9571847 7.571012,46.9571847 L44.4698336,46.9571847 C46.9551827,46.9571847 49.2154128,45.6571003 50.5153841,43.5094297 C51.702909,41.361759 51.7602624,38.7638505 50.5153841,36.558657 L50.5150129,36.558657 Z M48.369546,42.3216787 C47.5219597,43.7343225 46.051906,44.5819088 44.4141433,44.5819088 L7.57069726,44.5819088 C5.93293453,44.5819088 4.46288086,43.7343225 3.61529457,42.3216787 C2.76770828,40.9090349 2.76770828,39.2138623 3.61529457,37.7438087 L22.0373001,5.19762516 C22.8848864,3.7275715 24.3549401,2.87998521 25.9927028,2.87998521 C27.6304655,2.87998521 29.157929,3.7275715 29.9481055,5.19762516 L48.370111,37.7460689 C49.2176973,39.1587127 49.2176973,40.8538853 48.370111,42.3217352 L48.369546,42.3216787 Z"/>
  </g>
</svg>
