<svg width="90px" height="62px" viewBox="0 0 90 62" version="1.1" xmlns="http://www.w3.org/2000/svg" xmlns:xlink="http://www.w3.org/1999/xlink">
    <path id="analytics" d="M79.398,0.102 C73.6988,0.102 69.097,4.7036 69.097,10.403 C69.097,14.0046 70.9954,17.2038 73.8978,19.1022 L62.4998,33.7002 C61.4998,33.39942 60.3982,33.2002 59.3006,33.2002 C57.9022,33.2002 56.4998,33.50098 55.3006,34.00098 L40.9996,24.70018 C42.1988,23.00098 42.9996,20.89938 42.9996,18.70018 C42.9996,13.00098 38.398,8.39918 32.6986,8.39918 C26.9992,8.39918 22.3976,13.00078 22.3976,18.70018 C22.3976,22.00098 23.9992,25.00098 26.4992,26.89938 L15.1012,42.50138 C13.7028,41.80216 12.2028,41.39978 10.4996,41.39978 C4.898,41.39978 0.3006,46.00138 0.3006,51.70078 C0.3006,57.40018 4.9022,62.00178 10.6016,62.00178 C16.3008,62.00178 20.9026,57.40018 20.9026,51.70078 C20.9026,49.09918 19.9026,46.80238 18.4026,45.00158 L30.2036,28.60358 C31.00438,28.8028 31.8052,28.90436 32.7036,28.90436 C34.602,28.90436 36.4028,28.40436 37.9028,27.50596 L51.8008,36.50596 C50.1016,38.30676 49.1016,40.80676 49.1016,43.50596 C49.1016,49.20516 53.7032,53.80696 59.4026,53.80696 C65.1018,53.80696 69.7036,49.20536 69.7036,43.50596 C69.7036,40.40436 68.3052,37.60756 66.2036,35.80676 L78.1016,20.60776 C78.6016,20.70932 79.1016,20.70932 79.7032,20.70932 C85.4024,20.70932 90.0042,16.10772 90.0042,10.40832 C90.000294,4.70132 85.1019,0.10332 79.3992,0.10332 L79.398,0.102 Z M10.601,57.899 C7.101,57.899 4.3002,55.0982 4.3002,51.5982 C4.3002,48.0982 7.101,45.2974 10.601,45.2974 C11.9018,45.2974 13.101,45.69584 13.9994,46.2974 C14.10096,46.49662 14.30018,46.59818 14.39784,46.69584 C14.4994,46.7974 14.59706,46.7974 14.69862,46.89506 C15.99942,47.99666 16.69862,49.69586 16.69862,51.49666 C16.80018,55.10216 13.99942,57.89896 10.60092,57.89896 L10.601,57.899 Z M26.3,18.602 C26.3,15.102 29.1008,12.3012 32.6008,12.3012 C36.1008,12.3012 38.9016,15.102 38.9016,18.602 C38.9016,22.102 36.1008,24.9028 32.6008,24.9028 C29.1008,24.898894 26.3,22.102 26.3,18.602 Z M59.198,49.7 C55.698,49.7 52.8972,46.8992 52.8972,43.3992 C52.8972,39.8992 55.698,37.0984 59.198,37.0984 C62.698,37.0984 65.4988,39.8992 65.4988,43.3992 C65.4988,46.8992 62.698,49.7 59.198,49.7 Z M79.397,16.602 C75.897,16.602 73.0962,13.8012 73.0962,10.3012 C73.0962,6.8012 75.897,4.0004 79.397,4.0004 C82.897,4.0004 85.6978,6.8012 85.6978,10.3012 C85.6978,13.8012 82.897,16.602 79.397,16.602 Z" fill="#000000" fill-rule="nonzero"></path>
</svg>
