<?xml version="1.0" encoding="UTF-8"?>
<svg width="21px" height="26px" viewBox="0 0 21 26" version="1.1" xmlns="http://www.w3.org/2000/svg" xmlns:xlink="http://www.w3.org/1999/xlink">
    <!-- Generator: Sketch 50.2 (55047) - http://www.bohemiancoding.com/sketch -->
    <title>b&amp;w/bot</title>
    <desc>Created with Sketch.</desc>
    <defs></defs>
    <g id="Final-Screens" stroke="none" stroke-width="1" fill="none" fill-rule="evenodd">
        <g id="mockup-05" transform="translate(-107.000000, -108.000000)">
            <g id="Components/Tabs" transform="translate(60.000000, 105.000000)">
                <g id="image/Bot/outline" transform="translate(41.000000, 0.000000)">
                    <path d="M16.4444444,3.11111111 C21.8482513,3.11111111 26.2222222,7.64708095 26.2222222,13.2345679 L26.2222222,22.9135802 C26.2222222,26.2101083 23.6391123,28.8888889 20.4444444,28.8888889 L12.4444444,28.8888889 C9.24977656,28.8888889 6.66666667,26.2101083 6.66666667,22.9135802 L6.66666667,13.2345679 C6.66666667,7.64708092 11.0406376,3.11111111 16.4444444,3.11111111 Z" id="Path" fill="#333333" fill-rule="evenodd"></path>
                    <path d="M16.4444444,4 C11.538936,4 7.55555556,8.13091305 7.55555556,13.2345679 L7.55555556,22.9135802 C7.55555556,25.7262761 9.748075,28 12.4444444,28 L20.4444444,28 C23.1408139,28 25.3333333,25.7262761 25.3333333,22.9135802 L25.3333333,13.2345679 C25.3333333,8.13091308 21.3499528,4 16.4444444,4 Z" id="Path" fill="#FFFFFF" fill-rule="evenodd"></path>
                    <path d="M11.1111111,10.0246914 L21.7777778,10.0246914 C22.7596173,10.0246914 23.5555556,10.8206296 23.5555556,11.8024691 L23.5555556,13.2839506 C23.5555556,14.2657902 22.7596173,15.0617284 21.7777778,15.0617284 L11.1111111,15.0617284 C10.1292716,15.0617284 9.33333333,14.2657902 9.33333333,13.2839506 L9.33333333,11.8024691 C9.33333333,10.8206296 10.1292716,10.0246914 11.1111111,10.0246914 Z" id="Path" fill="#333333" fill-rule="evenodd"></path>
                    <path d="M11.1111111,10.9135802 C10.6201913,10.9135802 10.2222222,11.3115494 10.2222222,11.8024691 L10.2222222,13.2839506 C10.2222222,13.7748704 10.6201913,14.1728395 11.1111111,14.1728395 L21.7777778,14.1728395 C22.2686976,14.1728395 22.6666667,13.7748704 22.6666667,13.2839506 L22.6666667,11.8024691 C22.6666667,11.3115494 22.2686976,10.9135802 21.7777778,10.9135802 L11.1111111,10.9135802 Z" id="Path" fill="#DDDDDD" fill-rule="evenodd"></path>
                    <polygon id="Line" fill="#333333" fill-rule="nonzero" points="16 18.7654321 16.8888889 18.7654321 16.8888889 24.2962963 16 24.2962963"></polygon>
                </g>
            </g>
        </g>
    </g>
</svg>