<?xml version="1.0" encoding="UTF-8"?>
<svg width="24px" height="24px" viewBox="0 0 24 24" version="1.1" xmlns="http://www.w3.org/2000/svg" xmlns:xlink="http://www.w3.org/1999/xlink">
    <!-- Generator: Sketch 50.2 (55047) - http://www.bohemiancoding.com/sketch -->
    <title>icon/circle more</title>
    <desc>Created with Sketch.</desc>
    <defs></defs>
    <g id="icon/circle-more" stroke="none" stroke-width="1" fill="none" fill-rule="evenodd">
        <path d="M20.5,12 C20.5,7.30557963 16.6944204,3.5 12,3.5 C7.30557963,3.5 3.5,7.30557963 3.5,12 C3.5,16.6944204 7.30557963,20.5 12,20.5 C16.6944204,20.5 20.5,16.6944204 20.5,12 Z M21.5,12 C21.5,17.2467051 17.2467051,21.5 12,21.5 C6.75329488,21.5 2.5,17.2467051 2.5,12 C2.5,6.75329488 6.75329488,2.5 12,2.5 C17.2467051,2.5 21.5,6.75329488 21.5,12 Z" id="Rectangle-314" fill="#333333" fill-rule="nonzero" transform="translate(12.000000, 12.000000) rotate(-270.000000) translate(-12.000000, -12.000000) "></path>
        <path d="M9,12 L9,12 C9,12.5522847 8.55228475,13 8,13 L8,13 C7.44771525,13 7,12.5522847 7,12 L7,12 C7,11.4477153 7.44771525,11 8,11 L8,11 C8.55228475,11 9,11.4477153 9,12 Z" id="Rectangle-314" fill="#333333" transform="translate(8.000000, 12.000000) rotate(-270.000000) translate(-8.000000, -12.000000) "></path>
        <path d="M13,12 L13,12 C13,12.5522847 12.5522847,13 12,13 L12,13 C11.4477153,13 11,12.5522847 11,12 L11,12 C11,11.4477153 11.4477153,11 12,11 L12,11 C12.5522847,11 13,11.4477153 13,12 Z" id="Rectangle-314" fill="#333333" transform="translate(12.000000, 12.000000) rotate(-270.000000) translate(-12.000000, -12.000000) "></path>
        <path d="M17,12 L17,12 C17,12.5522847 16.5522847,13 16,13 L16,13 C15.4477153,13 15,12.5522847 15,12 L15,12 C15,11.4477153 15.4477153,11 16,11 L16,11 C16.5522847,11 17,11.4477153 17,12 Z" id="Rectangle-314" fill="#333333" transform="translate(16.000000, 12.000000) rotate(-270.000000) translate(-16.000000, -12.000000) "></path>
    </g>
</svg>