<svg width="40px" height="40px" viewBox="0 0 40 40">
    <g id="business-permission-17" stroke="none" stroke-width="1" fill="none" fill-rule="evenodd" transform="translate(-304.000000, -223.000000)" stroke-linecap="round" stroke-linejoin="round">
        <g id="client" transform="translate(304.000000, 223.000000)" stroke="#83ACC1" stroke-width="2">
            <path d="M32.5607713,34.1251529 C31.2256025,33.6508245 28.6891447,32.7866016 26.0851118,32.0965676 L25.7195925,29.1724138 L14.3896427,29.1724138 L14.0241373,32.0964571 C11.4208527,32.7862951 8.88562809,33.6501667 7.55172414,34.1240812" id="Oval-1-Copy-3"></path>
            <circle id="Oval-1-Copy-2" cx="20" cy="20" r="19"></circle>
            <path d="M23.773787,6.77541826 C25.8082926,7.95104753 27.1648466,10.0617042 27.1648466,12.4699715 C27.1648466,12.764823 27.1445121,13.0552133 27.1050884,13.3399727 C27.3778428,14.4522196 27.5272244,15.6483002 27.5295702,16.8941515 C27.5821317,16.8939298 27.6353599,16.8974705 27.6889515,16.9050023 C28.2929932,16.9898948 28.7071833,17.5408553 28.6234119,18.1369197 L28.2433168,20.8414371 C28.1596665,21.4366396 27.605353,21.8523647 27.0054934,21.7680599 C26.9173738,21.7556755 26.8332947,21.7333723 26.7542126,21.7024572 C26.266003,23.1186268 25.5675577,24.3580314 24.7176372,25.3360848 L24.7176372,29.1724138 L15.3867409,29.1724138 L15.3867409,25.3360848 C14.5328691,24.3534844 13.8318842,23.1070971 13.34337,21.6826943 C13.2654593,21.7130031 13.1826718,21.7348865 13.0959357,21.7470765 C12.5012527,21.8306537 11.9517227,21.4185163 11.8687944,20.8284502 L11.4919793,18.147272 C11.4089309,17.5563515 11.8195466,17.0101457 12.4183756,16.9259857 C12.4709613,16.9185953 12.523194,16.915081 12.5747822,16.915223 C12.5754736,15.6617863 12.7249979,14.4584888 12.9992897,13.3399727 C12.959866,13.0552133 12.9395315,12.764823 12.9395315,12.4699715 C12.9395315,9.12672863 15.5538807,6.35704043 18.9670415,5.86625601 C19.8991068,5.53989634 21.798986,4.93103448 23.0004649,4.93103448 C23.8341116,4.93103448 23.9054543,5.86056317 23.773787,6.77541826 Z" id="Oval-2-Copy" fill="#D5F1FF" fill-rule="evenodd"></path>
        </g>
    </g>
</svg>
