<svg width="54px" height="54px" viewBox="0 0 54 54" version="1.1" xmlns="http://www.w3.org/2000/svg" xmlns:xlink="http://www.w3.org/1999/xlink">
    <g id="entity-types-images/date" stroke="none" stroke-width="1" fill="none" fill-rule="evenodd">
        <path d="M46.3429752,7 L8.65702479,7 C6.67355372,7 5,8.68587896 5,10.8256484 L5,46.1743516 C5,48.2492795 6.61157025,50 8.65702479,50 L46.3429752,50 C48.3264463,50 50,48.314121 50,46.1743516 L50,10.8256484 C50,8.68587896 48.3884298,7 46.3429752,7 Z" id="Shape" stroke="#333333" stroke-width="2" fill="#FFFFFF"></path>
        <path d="M42,45 L13,45 C11.3431458,45 10,43.6568542 10,42 L10,19 C10,17.3431458 11.3431458,16 13,16 L42,16 C43.6568542,16 45,17.3431458 45,19 L45,42 C45,43.6568542 43.6568542,45 42,45 Z" id="Shape" stroke="#333333" stroke-width="2" fill="#FFFFFF"></path>
        <g id="Group-2" transform="translate(15.000000, 3.000000)" fill="#FFFFFF" stroke="#333333" stroke-width="2">
            <path d="M5,5.5 L5,2.5 C5,1.11928813 3.88071187,-2.53632657e-16 2.5,0 L2.5,0 C1.11928813,2.53632657e-16 -1.69088438e-16,1.11928813 0,2.5 L0,5.5 C1.69088438e-16,6.88071187 1.11928813,8 2.5,8 L2.5,8 C3.88071187,8 5,6.88071187 5,5.5 Z" id="Shape"></path>
            <path d="M25,5.5 L25,2.5 C25,1.11928813 23.8807119,-2.53632657e-16 22.5,0 L22.5,0 C21.1192881,2.53632657e-16 20,1.11928813 20,2.5 L20,5.5 C20,6.88071187 21.1192881,8 22.5,8 L22.5,8 C23.8807119,8 25,6.88071187 25,5.5 Z" id="Shape"></path>
        </g>
        <g id="Group" transform="translate(17.000000, 29.000000)" stroke="#333333" stroke-width="2">
            <path d="M3.21062442,2.75 L3.21062442,1.75 C3.21062442,1.19771525 2.76290917,0.75 2.21062442,0.75 L1.21062442,0.75 C0.658339668,0.75 0.210624418,1.19771525 0.210624418,1.75 L0.210624418,2.75 C0.210624418,3.30228475 0.658339668,3.75 1.21062442,3.75 L2.21062442,3.75 C2.76290917,3.75 3.21062442,3.30228475 3.21062442,2.75 Z" id="Shape"></path>
            <path d="M12.2106244,2.75 L12.2106244,1.75 C12.2106244,1.19771525 11.7629092,0.75 11.2106244,0.75 L10.2106244,0.75 C9.65833967,0.75 9.21062442,1.19771525 9.21062442,1.75 L9.21062442,2.75 C9.21062442,3.30228475 9.65833967,3.75 10.2106244,3.75 L11.2106244,3.75 C11.7629092,3.75 12.2106244,3.30228475 12.2106244,2.75 Z" id="Shape"></path>
            <path d="M21.2106244,2.75 L21.2106244,1.75 C21.2106244,1.19771525 20.7629092,0.75 20.2106244,0.75 L19.2106244,0.75 C18.6583397,0.75 18.2106244,1.19771525 18.2106244,1.75 L18.2106244,2.75 C18.2106244,3.30228475 18.6583397,3.75 19.2106244,3.75 L20.2106244,3.75 C20.7629092,3.75 21.2106244,3.30228475 21.2106244,2.75 Z" id="Shape"></path>
        </g>
    </g>
</svg>