<svg width="50px" height="50px" viewBox="0 0 50 50" version="1.1" xmlns="http://www.w3.org/2000/svg" xmlns:xlink="http://www.w3.org/1999/xlink" style="background: #FFFFFF;">
    <g id="regex" stroke="none" stroke-width="1" fill="none" fill-rule="evenodd">
        <path d="M15.892,41.244 C11.256,38.66 8.444,32.922 8.444,25.018 C8.444,17.076 11.256,11.376 15.892,8.792 L15.892,10.654 C12.776,13.238 10.762,17.912 10.762,25.018 C10.762,32.124 12.776,36.76 15.892,39.344 L15.892,41.244 Z M18.21,36 L18.21,32.314 L21.326,32.314 L21.326,36 L18.21,36 Z M27.444,19.964 L27.824,15.594 L24.784,17.988 L23.834,16.43 L27.368,14.644 L23.834,12.896 L24.784,11.3 L27.824,13.694 L27.444,9.362 L29.268,9.362 L28.85,13.694 L31.928,11.3 L32.84,12.896 L29.306,14.644 L32.84,16.43 L31.928,17.988 L28.85,15.594 L29.268,19.964 L27.444,19.964 Z M34.398,41.244 L34.398,39.344 C37.552,36.76 39.528,32.124 39.528,25.018 C39.528,17.912 37.552,13.238 34.398,10.654 L34.398,8.792 C39.072,11.376 41.884,17.076 41.884,25.018 C41.884,32.922 39.072,38.66 34.398,41.244 Z" id="(.*)" fill="#333333"></path>
    </g>
</svg>