<svg width="24px" height="24px" viewBox="0 0 24 24">
    <g stroke="none" stroke-width="1" fill="none" fill-rule="evenodd" stroke-linecap="round" stroke-linejoin="round">
        <g stroke="#333333">
            <g transform="translate(3.000000, 4.000000)">
                <path d="M1.89734173,3.31051373 L7.99936634,0.890691179 C8.4496268,0.712135624 8.98472683,0.712135624 9.43498728,0.890691179 L15.5370119,3.31051373 C16.3042122,3.61475513 16.6047762,4.33869328 16.2083404,4.92747484 C16.0938045,5.0975821 15.9278902,5.24418569 15.7244573,5.35503896 L9.62243269,8.68011206 C9.08030805,8.97552287 8.35404558,8.97552287 7.81192094,8.68011206 L1.70989632,5.35503896 C1.00576669,4.9713495 0.840253693,4.22224438 1.34021271,3.68186585 C1.48465788,3.52574291 1.6756868,3.39841334 1.89734173,3.31051373 Z" fill="#FFFFFF"></path>
                <path d="M16.6460955,6.45033259 C17.2928373,6.70680493 17.3342974,7.17781601 16.7420002,7.50056653 L9.79230183,11.2875481 C9.19852668,11.611104 8.23434904,11.6102987 7.6420518,11.2875481 L0.692353454,7.50056653 C0.0985783034,7.17701067 0.145813399,6.70510086 0.78825812,6.45033259"></path>
                <path d="M16.6460955,9.15033259 C17.2928373,9.40680493 17.3342974,9.87781601 16.7420002,10.2005665 L9.79230183,13.9875481 C9.19852668,14.311104 8.23434904,14.3102987 7.6420518,13.9875481 L0.692353454,10.2005665 C0.0985783034,9.87701067 0.145813399,9.40510086 0.78825812,9.15033259"></path>
                <path d="M16.6460955,11.8503326 C17.2928373,12.1068049 17.3342974,12.577816 16.7420002,12.9005665 L9.79230183,16.6875481 C9.19852668,17.011104 8.23434904,17.0102987 7.6420518,16.6875481 L0.692353454,12.9005665 C0.0985783034,12.5770107 0.145813399,12.1051009 0.78825812,11.8503326"></path>
            </g>
        </g>
    </g>
</svg>
