<svg width="36px" height="36px" viewBox="0 0 36 36">
  <g id="Assets" stroke="none" stroke-width="1" fill="none" fill-rule="evenodd" stroke-linecap="round" stroke-linejoin="round">
      <g id="image/entity" stroke="#5D86CA" stroke-width="2">
          <g id="Group-14" transform="translate(1.000000, 2.000000)">
              <path d="M3.72674794,5.1111881 L15.7123104,0.358186254 C16.5967094,0.00746843702 17.6477499,0.00746843702 18.5321489,0.358186254 L30.5177114,5.1111881 C32.0246418,5.70877734 32.6150079,7.13073258 31.836331,8.28721402 C31.6863505,8.50996316 27.3743496,10.9669328 18.9003281,15.6581229 C17.83549,16.2383672 16.4089693,16.2383672 15.3441312,15.6581229 L3.35856874,9.12703304 C1.97552127,8.37339237 1.65042158,6.90200431 2.63243825,5.84059583 C2.91615665,5.53394003 3.29137459,5.28384002 3.72674794,5.1111881 Z" id="Rectangle-314" fill="#A4C6FF"></path>
              <path d="M32.6961671,11.2784026 C33.9664938,11.7821642 34.0479295,12.7073215 32.8845425,13.3412662 L19.2339842,20.7796342 C18.0676943,21.4151608 16.1738621,21.4135789 15.0104751,20.7796342 L1.35991676,13.3412662 C0.193626949,12.7057396 0.286405858,11.778817 1.54829216,11.2784026" id="Rectangle-314"></path>
              <path d="M32.6961671,16.5817274 C33.9664938,17.085489 34.0479295,18.0106463 32.8845425,18.644591 L19.2339842,26.082959 C18.0676943,26.7184856 16.1738621,26.7169038 15.0104751,26.082959 L1.35991676,18.644591 C0.193626949,18.0090644 0.286405858,17.0821418 1.54829216,16.5817274" id="Rectangle-314"></path>
              <path d="M32.6961671,21.8850523 C33.9664938,22.3888138 34.0479295,23.3139711 32.8845425,23.9479158 L19.2339842,31.3862838 C18.0676943,32.0218104 16.1738621,32.0202286 15.0104751,31.3862838 L1.35991676,23.9479158 C0.193626949,23.3123893 0.286405858,22.3854667 1.54829216,21.8850523" id="Rectangle-314"></path>
          </g>
      </g>
  </g>
</svg>
