<svg width="24px" height="24px" viewBox="0 0 24 24">
    <g stroke="none" stroke-width="1" fill="none" fill-rule="evenodd">
        <g stroke="#333333">
            <g transform="translate(3.000000, 3.000000)">
                <path d="M15.4414102,9.8775 C15.4774102,9.5895 15.5044102,9.297 15.5044102,9 C15.5044102,8.703 15.4774102,8.4105 15.4414102,8.1225 L17.3449102,6.633 C17.5159102,6.498 17.5654102,6.255 17.4529102,6.057 L15.6529102,2.9385 C15.5404102,2.745 15.3064102,2.664 15.1039102,2.745 L12.8629102,3.6495 C12.3994102,3.294 11.8909102,2.9925 11.3419102,2.763 L11.0044102,0.378 C10.9639102,0.1665 10.7794102,0 10.5544102,0 L6.95441022,0 C6.72941022,0 6.54491022,0.1665 6.50891022,0.378 L6.17141022,2.763 C5.62241022,2.9925 5.11391022,3.2895 4.65041022,3.6495 L2.40941022,2.745 C2.20691022,2.6685 1.97291022,2.745 1.86041022,2.9385 L0.0604102249,6.057 C-0.0520897751,6.2505 -0.00258977508,6.4935 0.168410225,6.633 L2.06741022,8.1225 C2.03141022,8.4105 2.00441022,8.703 2.00441022,9 C2.00441022,9.297 2.03141022,9.5895 2.06741022,9.8775 L0.168410225,11.367 C-0.00258977508,11.502 -0.0520897751,11.745 0.0604102249,11.943 L1.86041022,15.0615 C1.97291022,15.255 2.20691022,15.336 2.40941022,15.255 L4.65041022,14.3505 C5.11391022,14.706 5.62241022,15.0075 6.17141022,15.237 L6.50891022,17.622 C6.54491022,17.8335 6.72941022,18 6.95441022,18 L10.5544102,18 C10.7794102,18 10.9639102,17.8335 10.9999102,17.622 L11.3374102,15.237 C11.8864102,15.0075 12.3949102,14.7105 12.8584102,14.3505 L15.0994102,15.255 C15.3019102,15.3315 15.5359102,15.255 15.6484102,15.0615 L17.4484102,11.943 C17.5609102,11.7495 17.5114102,11.5065 17.3404102,11.367 L15.4414102,9.8775 Z" fill-rule="nonzero"></path>
                <path d="M5.60441022,9 C5.60441022,7.2585 7.01291022,5.85 8.75441022,5.85 C10.4959102,5.85 11.9044102,7.2585 11.9044102,9 C11.9044102,10.7415 10.4959102,12.15 8.75441022,12.15 C7.01291022,12.15 5.60441022,10.7415 5.60441022,9 Z"></path>
            </g>
        </g>
    </g>
</svg>
