
<svg width="697px" height="732px" viewBox="0 0 697 732" version="1.1" xmlns="http://www.w3.org/2000/svg" xmlns:xlink="http://www.w3.org/1999/xlink">
    <defs>
        <path d="M286,3 C263,13 262,61 262,61 L262,104 C263,147 262,151 261,199 C261,225 259,270 261,297 C262,309 244,315 240,299 C231,268 223,228 221,218 L209,147 C198,91 194,86 187,71 C162,21 126,62 129,92 C132,116 146,204 166,289 C172,318 176,364 164,369 C146,375 140,363 124,337 L79,256 C66,234 43,186 13,196 C-6,202 -6,226 34,296 C75,369 86,414 102,459 C117,503 130,560 151,617 C165,657 189,705 229,722 C284,745 320,723 368,700 C404,684 445,644 471,613 C506,573 516,557 557,522 C592,492 624,472 664,448 C702,426 705,402 684,390 C657,374 600,392 564,421 C526,453 460,507 428,443 C417,422 414,415 412,394 C408,367 415,348 417,340 C421,327 428,317 433,300 C450,244 461,188 472,130 C482,75 475,48 452,44 C434,41 421,56 410,89 C389,152 396,191 380,255 C375,272 369,315 345,313 C328,311 319,293 323,241 C326,202 320,130 323,93 C325,59 319,-1 294,1 L286,3" id="path-1"></path>
        <polygon id="path-3" points="0 0 4519 0 4519 2573 0 2573"></polygon>
        <path d="M294,0 L286,3 C263,12 262,60 262,60 L262,198 C261,224 260,270 262,297 C262,309 244,315 240,299 L221,218 L209,146 C198,91 194,85 187,71 C163,21 127,61 130,91 C132,116 146,203 166,288 C172,317 177,364 164,369 C147,375 141,363 124,336 C111,315 92,277 79,256 C66,233 44,185 13,195 C-5,201 -6,225 34,296 C75,369 87,414 102,459 C117,503 130,560 151,617 C166,657 189,705 229,722 C284,745 320,722 368,700 C404,684 445,644 471,613 C506,573 516,557 557,522 C592,491 623,472 664,448 C702,426 704,402 684,390 C657,373 600,392 564,421 C525,453 460,507 428,443 C417,422 414,415 412,394 C408,367 415,348 417,340 C421,327 428,316 433,300 C450,244 461,187 472,129 C482,74 475,48 452,44 C434,40 421,55 410,89 C389,151 396,190 380,254 C375,272 369,315 345,313 C328,311 319,292 323,241 C326,202 321,130 323,93 C325,59 319,0 296,0 L294,0" id="path-5"></path>
        <polygon id="path-7" points="0 0 4519 0 4519 2573 0 2573"></polygon>
        <polygon id="path-9" points="0 0 494 0 494 782 0 782"></polygon>
        <path d="M451,0 C451,0 525,264 430,479 C376,601 253,684 110,780 L0,515 C0,515 286,471 334,56" id="path-11"></path>
        <polygon id="path-13" points="0 0 704 0 704 731 0 731"></polygon>
        <path d="M294,0 L286,3 C263,12 262,60 262,60 L262,198 C261,224 260,270 262,297 C262,309 244,315 240,299 L221,218 L209,146 C198,91 194,85 187,71 C163,21 127,61 130,91 C132,116 146,203 166,288 C172,317 177,364 164,369 C147,375 141,363 124,336 C111,315 92,277 79,256 C66,233 44,185 13,195 C-5,201 -6,225 34,296 C75,369 87,414 102,459 C117,503 130,560 151,617 C166,657 189,705 229,722 C284,745 320,722 368,700 C404,684 445,644 471,613 C506,573 516,557 557,522 C592,491 623,472 664,448 C702,426 704,402 684,390 C657,373 600,392 564,421 C525,453 460,507 428,443 C417,422 414,415 412,394 C408,367 415,348 417,340 C421,327 428,316 433,300 C450,244 461,187 472,129 C482,74 475,48 452,44 C434,40 421,55 410,89 C389,151 396,190 380,254 C375,272 369,315 345,313 C328,311 319,292 323,241 C326,202 321,130 323,93 C325,59 319,0 296,0 L294,0" id="path-15"></path>
        <polygon id="path-17" points="0 0 4519 0 4519 2573 0 2573"></polygon>
        <polygon id="path-19" points="0 0 569 0 569 603 0 603"></polygon>
        <path d="M0,601 C0,601 472,576 567,120 L406,0 C406,0 496,351 22,465 C0,470 23,593 0,601" id="path-21"></path>
        <polygon id="path-23" points="0 0 704 0 704 731 0 731"></polygon>
        <path d="M294,0 L286,3 C263,12 262,60 262,60 L262,198 C261,224 260,270 262,297 C262,309 244,315 240,299 L221,218 L209,146 C198,91 194,85 187,71 C163,21 127,61 130,91 C132,116 146,203 166,288 C172,317 177,364 164,369 C147,375 141,363 124,336 C111,315 92,277 79,256 C66,233 44,185 13,195 C-5,201 -6,225 34,296 C75,369 87,414 102,459 C117,503 130,560 151,617 C166,657 189,705 229,722 C284,745 320,722 368,700 C404,684 445,644 471,613 C506,573 516,557 557,522 C592,491 623,472 664,448 C702,426 704,402 684,390 C657,373 600,392 564,421 C525,453 460,507 428,443 C417,422 414,415 412,394 C408,367 415,348 417,340 C421,327 428,316 433,300 C450,244 461,187 472,129 C482,74 475,48 452,44 C434,40 421,55 410,89 C389,151 396,190 380,254 C375,272 369,315 345,313 C328,311 319,292 323,241 C326,202 321,130 323,93 C325,59 319,0 296,0 L294,0" id="path-25"></path>
        <polygon id="path-27" points="0 0 4519 0 4519 2573 0 2573"></polygon>
        <polygon id="path-29" points="0 0 367 0 367 218 0 218"></polygon>
        <path d="M364,0 C364,0 231,298 0,171 C0,171 202,189 364,0" id="path-31"></path>
        <polygon id="path-33" points="0 0 704 0 704 731 0 731"></polygon>
        <path d="M294,0 L286,3 C263,12 262,60 262,60 L262,198 C261,224 260,270 262,297 C262,309 244,315 240,299 L221,218 L209,146 C198,91 194,85 187,71 C163,21 127,61 130,91 C132,116 146,203 166,288 C172,317 177,364 164,369 C147,375 141,363 124,336 C111,315 92,277 79,256 C66,233 44,185 13,195 C-5,201 -6,225 34,296 C75,369 87,414 102,459 C117,503 130,560 151,617 C166,657 189,705 229,722 C284,745 320,722 368,700 C404,684 445,644 471,613 C506,573 516,557 557,522 C592,491 623,472 664,448 C702,426 704,402 684,390 C657,373 600,392 564,421 C525,453 460,507 428,443 C417,422 414,415 412,394 C408,367 415,348 417,340 C421,327 428,316 433,300 C450,244 461,187 472,129 C482,74 475,48 452,44 C434,40 421,55 410,89 C389,151 396,190 380,254 C375,272 369,315 345,313 C328,311 319,292 323,241 C326,202 321,130 323,93 C325,59 319,0 296,0 L294,0" id="path-35"></path>
        <polygon id="path-37" points="0 0 4519 0 4519 2573 0 2573"></polygon>
        <polygon id="path-39" points="0 0 112 0 112 168 0 168"></polygon>
        <path d="M91,0 C91,0 122,148 0,164 C0,164 81,115 91,0" id="path-41"></path>
        <polygon id="path-43" points="0 0 704 0 704 731 0 731"></polygon>
        <path d="M294,0 L286,3 C263,12 262,60 262,60 L262,198 C261,224 260,270 262,297 C262,309 244,315 240,299 L221,218 L209,146 C198,91 194,85 187,71 C163,21 127,61 130,91 C132,116 146,203 166,288 C172,317 177,364 164,369 C147,375 141,363 124,336 C111,315 92,277 79,256 C66,233 44,185 13,195 C-5,201 -6,225 34,296 C75,369 87,414 102,459 C117,503 130,560 151,617 C166,657 189,705 229,722 C284,745 320,722 368,700 C404,684 445,644 471,613 C506,573 516,557 557,522 C592,491 623,472 664,448 C702,426 704,402 684,390 C657,373 600,392 564,421 C525,453 460,507 428,443 C417,422 414,415 412,394 C408,367 415,348 417,340 C421,327 428,316 433,300 C450,244 461,187 472,129 C482,74 475,48 452,44 C434,40 421,55 410,89 C389,151 396,190 380,254 C375,272 369,315 345,313 C328,311 319,292 323,241 C326,202 321,130 323,93 C325,59 319,0 296,0 L294,0" id="path-45"></path>
        <polygon id="path-47" points="0 0 4519 0 4519 2573 0 2573"></polygon>
        <polygon id="path-49" points="0 0 433 0 433 234 0 234"></polygon>
        <path d="M0,97 C0,97 165,245 432,0 C432,0 181,419 0,97" id="path-51"></path>
        <polygon id="path-53" points="0 0 704 0 704 731 0 731"></polygon>
    </defs>
    <g id="Page-1" stroke="none" stroke-width="1" fill="none" fill-rule="evenodd">
        <g id="logo">
            <mask id="mask-2" fill="white">
                <use xlink:href="#path-1"></use>
            </mask>
            <g id="a"></g>
            <g id="Clipped" mask="url(#mask-2)">
                <g transform="translate(-1369.000000, -922.000000)">
                    <mask id="mask-4" fill="white">
                        <use xlink:href="#path-3"></use>
                    </mask>
                    <g id="c" stroke="none" fill="none"></g>
                    <polygon id="Path" stroke="none" fill="#51CFE1" fill-rule="nonzero" mask="url(#mask-4)" points="1356 909 2079 909 2079 1667 1356 1667"></polygon>
                </g>
            </g>
            <mask id="mask-6" fill="white">
                <use xlink:href="#path-5"></use>
            </mask>
            <g id="e"></g>
            <g id="Clipped" mask="url(#mask-6)">
                <g transform="translate(-1369.000000, -922.000000)">
                    <mask id="mask-8" fill="white">
                        <use xlink:href="#path-7"></use>
                    </mask>
                    <g id="g" stroke="none" fill="none"></g>
                    <g id="Clipped" stroke="none" stroke-width="1" fill="none" fill-rule="evenodd" mask="url(#mask-8)">
                        <g transform="translate(1391.000000, 822.000000)">
                            <mask id="mask-10" fill="white">
                                <use xlink:href="#path-9"></use>
                            </mask>
                            <g id="i" stroke="none" fill="none"></g>
                            <g id="Clipped" stroke="none" stroke-width="1" fill="none" fill-rule="evenodd" mask="url(#mask-10)">
                                <g transform="translate(0.000000, 1.000000)">
                                    <mask id="mask-12" fill="white">
                                        <use xlink:href="#path-11"></use>
                                    </mask>
                                    <g id="k" stroke="none" fill="none"></g>
                                    <g id="Clipped" stroke="none" stroke-width="1" fill="none" fill-rule="evenodd" mask="url(#mask-12)">
                                        <g transform="translate(-22.000000, 100.000000)">
                                            <mask id="mask-14" fill="white">
                                                <use xlink:href="#path-13"></use>
                                            </mask>
                                            <g id="m" stroke="none" fill="none"></g>
                                            <polygon id="Path" stroke="none" fill="#0067DD" fill-rule="nonzero" mask="url(#mask-14)" points="9 -113 514 -113 514 694 9 694"></polygon>
                                        </g>
                                    </g>
                                </g>
                            </g>
                        </g>
                    </g>
                </g>
            </g>
            <mask id="mask-16" fill="white">
                <use xlink:href="#path-15"></use>
            </mask>
            <g id="o"></g>
            <g id="Clipped" mask="url(#mask-16)">
                <g transform="translate(-1369.000000, -922.000000)">
                    <mask id="mask-18" fill="white">
                        <use xlink:href="#path-17"></use>
                    </mask>
                    <g id="q" stroke="none" fill="none"></g>
                    <g id="Clipped" stroke="none" stroke-width="1" fill="none" fill-rule="evenodd" mask="url(#mask-18)">
                        <g transform="translate(1433.000000, 1096.000000)">
                            <mask id="mask-20" fill="white">
                                <use xlink:href="#path-19"></use>
                            </mask>
                            <g id="s" stroke="none" fill="none"></g>
                            <g id="Clipped" stroke="none" stroke-width="1" fill="none" fill-rule="evenodd" mask="url(#mask-20)">
                                <g transform="translate(1.000000, 0.000000)">
                                    <mask id="mask-22" fill="white">
                                        <use xlink:href="#path-21"></use>
                                    </mask>
                                    <g id="u" stroke="none" fill="none"></g>
                                    <g id="Clipped" stroke="none" stroke-width="1" fill="none" fill-rule="evenodd" mask="url(#mask-22)">
                                        <g transform="translate(-65.000000, -173.000000)">
                                            <mask id="mask-24" fill="white">
                                                <use xlink:href="#path-23"></use>
                                            </mask>
                                            <g id="w" stroke="none" fill="none"></g>
                                            <polygon id="Path" stroke="none" fill="#F8059F" fill-rule="nonzero" mask="url(#mask-24)" points="52 159 646 159 646 787 52 787"></polygon>
                                        </g>
                                    </g>
                                </g>
                            </g>
                        </g>
                    </g>
                </g>
            </g>
            <mask id="mask-26" fill="white">
                <use xlink:href="#path-25"></use>
            </mask>
            <g id="y"></g>
            <g id="Clipped" mask="url(#mask-26)">
                <g transform="translate(-1369.000000, -922.000000)">
                    <mask id="mask-28" fill="white">
                        <use xlink:href="#path-27"></use>
                    </mask>
                    <g id="A" stroke="none" fill="none"></g>
                    <g id="Clipped" stroke="none" stroke-width="1" fill="none" fill-rule="evenodd" mask="url(#mask-28)">
                        <g transform="translate(1292.000000, 1287.000000)">
                            <mask id="mask-30" fill="white">
                                <use xlink:href="#path-29"></use>
                            </mask>
                            <g id="C" stroke="none" fill="none"></g>
                            <g id="Clipped" stroke="none" stroke-width="1" fill="none" fill-rule="evenodd" mask="url(#mask-30)">
                                <g transform="translate(2.000000, 0.000000)">
                                    <mask id="mask-32" fill="white">
                                        <use xlink:href="#path-31"></use>
                                    </mask>
                                    <g id="E" stroke="none" fill="none"></g>
                                    <g id="Clipped" stroke="none" stroke-width="1" fill="none" fill-rule="evenodd" mask="url(#mask-32)">
                                        <g transform="translate(75.000000, -364.000000)">
                                            <mask id="mask-34" fill="white">
                                                <use xlink:href="#path-33"></use>
                                            </mask>
                                            <g id="G" stroke="none" fill="none"></g>
                                            <polygon id="Path" stroke="none" fill="#FFF300" fill-rule="nonzero" mask="url(#mask-34)" points="-88 351 302 351 302 580 -88 580"></polygon>
                                        </g>
                                    </g>
                                </g>
                            </g>
                        </g>
                    </g>
                </g>
            </g>
            <mask id="mask-36" fill="white">
                <use xlink:href="#path-35"></use>
            </mask>
            <g id="I"></g>
            <g id="Clipped" mask="url(#mask-36)">
                <g transform="translate(-1369.000000, -922.000000)">
                    <mask id="mask-38" fill="white">
                        <use xlink:href="#path-37"></use>
                    </mask>
                    <g id="K" stroke="none" fill="none"></g>
                    <g id="Clipped" stroke="none" stroke-width="1" fill="none" fill-rule="evenodd" mask="url(#mask-38)">
                        <g transform="translate(1627.000000, 1098.000000)">
                            <mask id="mask-40" fill="white">
                                <use xlink:href="#path-39"></use>
                            </mask>
                            <g id="M" stroke="none" fill="none"></g>
                            <g id="Clipped" stroke="none" stroke-width="1" fill="none" fill-rule="evenodd" mask="url(#mask-40)">
                                <g transform="translate(2.000000, 3.000000)">
                                    <mask id="mask-42" fill="white">
                                        <use xlink:href="#path-41"></use>
                                    </mask>
                                    <g id="O" stroke="none" fill="none"></g>
                                    <g id="Clipped" stroke="none" stroke-width="1" fill="none" fill-rule="evenodd" mask="url(#mask-42)">
                                        <g transform="translate(-260.000000, -178.000000)">
                                            <mask id="mask-44" fill="white">
                                                <use xlink:href="#path-43"></use>
                                            </mask>
                                            <g id="Q" stroke="none" fill="none"></g>
                                            <polygon id="Path" stroke="none" fill="#FFCB00" fill-rule="nonzero" mask="url(#mask-44)" points="247 165 368 165 368 356 247 356"></polygon>
                                        </g>
                                    </g>
                                </g>
                            </g>
                        </g>
                    </g>
                </g>
            </g>
            <mask id="mask-46" fill="white">
                <use xlink:href="#path-45"></use>
            </mask>
            <g id="S"></g>
            <g id="Clipped" mask="url(#mask-46)">
                <g transform="translate(-1369.000000, -922.000000)">
                    <mask id="mask-48" fill="white">
                        <use xlink:href="#path-47"></use>
                    </mask>
                    <g id="U" stroke="none" fill="none"></g>
                    <g id="Clipped" stroke="none" stroke-width="1" fill="none" fill-rule="evenodd" mask="url(#mask-48)">
                        <g transform="translate(1369.000000, 1340.000000)">
                            <mask id="mask-50" fill="white">
                                <use xlink:href="#path-49"></use>
                            </mask>
                            <g id="W" stroke="none" fill="none"></g>
                            <g id="Clipped" stroke="none" stroke-width="1" fill="none" fill-rule="evenodd" mask="url(#mask-50)">
                                <g transform="translate(1.000000, 1.000000)">
                                    <mask id="mask-52" fill="white">
                                        <use xlink:href="#path-51"></use>
                                    </mask>
                                    <g id="Y" stroke="none" fill="none"></g>
                                    <g id="Clipped" stroke="none" stroke-width="1" fill="none" fill-rule="evenodd" mask="url(#mask-52)">
                                        <g transform="translate(-1.000000, -418.000000)">
                                            <mask id="mask-54" fill="white">
                                                <use xlink:href="#path-53"></use>
                                            </mask>
                                            <g id="aa" stroke="none" fill="none"></g>
                                            <polygon id="Path" stroke="none" fill="#FFF400" fill-rule="nonzero" mask="url(#mask-54)" points="-12 405 446 405 446 650 -12 650"></polygon>
                                        </g>
                                    </g>
                                </g>
                            </g>
                        </g>
                    </g>
                </g>
            </g>
        </g>
    </g>
</svg>
