<svg height="24" viewBox="0 0 24 24" width="24" xmlns="http://www.w3.org/2000/svg"><g fill="none"><path d="m14.3414634 11.7658537c-.0585366.2341463-.1170732.4975609-.0878049.8195122.0292683.7609756.292683 1.6975609.6731708 2.3414634 1.0829268 1.902439 3.2487805.3219512 4.3902439-.7024391 1.1121951-.9658536 3.1609756-1.7268292 4.1268292-1.2.9658537.5268293.4390244 1.3756098-.7609756 2.0780488-1.2292683.702439-2.4 1.5512195-3.5414634 2.4-1.3170732.995122-2.1658536 2.3121951-3.2780488 3.5121951-.8195122.8780488-1.7560975 1.697561-2.8097561 2.2829269-1.4634146.8195122-3.19024387 1.6682927-4.85853655.9658536-1.22926829-.5268292-2.10731707-1.7853658-2.54634146-2.9853658-.64390244-1.7560976-1.6097561-5.1804878-2.07804878-6.5268293-.4097561-1.3756097-1.2-3.6878049-2.69268293-5.76585365-1.46341463-2.10731707.14634146-3.33658536 1.37560976-1.66829268.46829268.64390244.84878048 1.34634146 1.22926829 2.0195122.3804878.67317073.70243902 1.37560973 1.14146341 1.99024393.35121952.5268292.52682927 1.2585366 1.25853659 1.0243902.3804878-.1170732.43902439-1.404878.29268293-1.9609756-.73170732-2.54634146-1.43414635-6.76097561-1.40487805-7.52195122.02926829-.76097561.93658536-2.04878048 1.84390244-.64390244.93658536 1.43414635.84878048 3.42439025 1.25853658 5.15121952.14634147.61463414.35121951 1.2.46829268 1.84390244.05853659.29268292.11707318.9951219.46829269 1.1121951.55609756.1756098.4097561-.81951218.4097561-1.1121951-.0292683-.79024391.02926829-1.58048781.02926829-2.37073171 0-1.43414634.02926829-2.89756098.05853658-4.33170732v-.05853658s-.20487805-2.07804878.90731703-2.4c1.1121952-.32195122 1.2 2.34146341 1.1121952 3.48292682-.0878049 1.11219513.0878048 4.0097561 0 5.18048781-.0878049 1.17073171.3512195 1.75609758.7317073 1.78536588.7317073 0 .9365854-.99512198 1.0829268-1.52195125.497561-1.96097561.497561-4.03902439 1.1121951-5.9707317.3512195-1.02439025.8487805-1.75609756 1.5804878-1.46341464.7317074.29268293.8780488 1.11219512.3512196 3.71707317-.3512196 1.78536586-.7024391 3.57073171-1.3170732 5.26829272-.1756098.4682926-.4097561.8195122-.5268293 1.2292683" fill="#fcee34"/><path d="m10.2731707.05853659-.0878048.05zm.1463415 0c.1170732 0 .2341463.1.3219512.24999999-.0878049-.14999999-.204878-.19999999-.3219512-.24999999" fill="#fcee34"/><path d="m4.65365854 11.3853659c.14634146.204878.26341463.4682926.40975609.6731707-.14634146-.2048781-.26341463-.4682927-.40975609-.6731707m1.5804878-.2341464v.0292683z" fill="#fcee34"/><path d="m2.04878049 10.9170732c.58536585 1.1121951.99512195 2.1951219 1.28780488 3.0731707-.29268293-.8780488-.70243903-1.9609756-1.28780488-3.0731707" fill="#fcee34"/><path d="m10.4231707.05853659c-.05 0-.1 0-.15 0h.15.1z" fill="#f06723"/><path d="m10.3609756.05853659c-.0292683 0-.0585366 0-.0878049 0l-.0878048.02926829h-.0292683c-.29268297.61463414-.58536589 1.22926829-.90731711 1.78536585v.20487805c0 .23414634.02926829.38048781.02926829.38048781v.05853658c-.02926829 1.17073171-.02926829 2.37073171-.02926829 3.54146342.76097561-2.31219513 1.22926831-4.39024391 1.52195121-5.85365854-.0878049-.08780488-.204878-.14634146-.3219512-.14634146z" fill="#f06723"/><path d="m5.06341463 12.0585366c.05853659.0878049.14634147.1756097.23414635.2341463-.11707318-.0585366-.17560976-.1463414-.23414635-.2341463m1.11219513-1.6390244c.05853658.1756098.08780487.4390244.08780487.7317073-.02926829-.2926829-.05853658-.5560975-.08780487-.7317073m-2.54634147-.8195122c.32195122.5853659.61463415 1.2.99512195 1.7560976-.3804878-.5560976-.67317073-1.1707317-.99512195-1.7560976m3.86341464-4.47804878c.11707317.76097561.20487805 1.55121951.3804878 2.28292683.08780488.35121951.17560976.70243902.29268293 1.05365854-.08780488-.35121952-.20487805-.70243903-.29268293-1.05365854-.20487805-.73170732-.26341463-1.52195122-.3804878-2.28292683" fill="#f06723"/><path d="m6.76097561 11.9414634c-.14634146.1170732-.29268293.2634146-.43902439.3804878.11707317-.0878049.23414634-.1463414.35121951-.2341463.02926829-.0585366.05853659-.0878049.08780488-.1463415m-3.13170732-2.3414634c-.55609756.5268293-1.08292683.9658537-1.5804878 1.3463415.58536585 1.1121951.99512195 2.1951219 1.28780488 3.0731707.08780487-.0292683.17560975-.0878049.26341463-.1170732.58536585-.497561 1.14146341-1.0243902 1.63902439-1.5804878-.08780488-.0585366-.14634146-.1463414-.23414634-.2341463-.14634146-.2048781-.26341464-.4390244-.4097561-.6731708-.35121951-.6146341-.64390244-1.2292682-.96585366-1.8146341m3.86341464-4.47804878c-.46829269.99512195-1.17073171 1.87317073-1.96097561 2.63414634.20487805.93658537.40975609 1.87317073.64390244 2.66341464.05853658.1756098.08780487.4390244.08780487.7317073v.0292683c.73170732-.8780488 1.34634147-1.81463414 1.90243903-2.72195121-.08780488-.35121952-.20487805-.70243903-.29268293-1.05365854-.20487805-.73170732-.26341463-1.52195122-.3804878-2.28292683" fill="#f06723"/><path d="m15.3182927 1.5804878c-.15.1-.3.2-.45.35.15-.15.3-.3.45-.35" fill="#fcee34"/><path d="m11.4731707 10.0097561c.1463415.3219512.3512195.497561.5853659.497561-.2341464 0-.4390244-.1756098-.5853659-.497561m1.7268293-1.43414634c-.0292683.14634146-.0585366.26341463-.0878049.40975609-.0292683.14634147-.0878049.35121952-.1463414.55609756.0585365-.20487804.1170731-.40975609.1463414-.55609756.0292683-.14634146.0585366-.29268292.0878049-.40975609" fill="#fcee34"/><path d="m8.86829268 10.3609756h.05z" fill="#fcee34"/><g fill="#76ccdd"><path d="m9.1902439 10.0682927c-.02926829.1756097-.11707317.3219512-.29268292.3219512.17560975-.0292683.26341463-.1463415.29268292-.3219512m3.7756098-.55609758c-.1463415.46829268-.4097561.96585368-.9365854.96585368.5268293.0292683.7609756-.4682927.9365854-.96585368m-1.6390244-1.75609756c0 .38048781 0 .70243903-.0292683.96585366-.0585366.55609756.0292683.96585366.1463414 1.25853658-.1170731-.29268292-.204878-.73170731-.1463414-1.25853658.0292683-.23414634.0292683-.58536585.0292683-.96585366m2.7804878-4.27317073c-.4682927 1.63902439-.5268293 3.39512195-.8780488 5.06341463.3512195-1.66829268.4097561-3.39512195.8780488-5.06341463"/><path d="m15.1317073 1.5804878c-.0878049.05853659-.1756097.11707318-.2634146.20487805-.2341464.58536586-.497561 1.17073171-.7902439 1.69756098-.4682927 1.63902439-.5268293 3.39512195-.8780488 5.06341463-.0292683.14634147-.0585366.26341464-.0878049.4097561s-.0878049.35121951-.1463414.55609756c-.1463415.46829268-.4097561.96585368-.9365854.96585368-.2048781 0-.4390244-.1756098-.5853659-.497561-.1170731-.29268292-.204878-.73170731-.1463414-1.25853658.0292683-.26341463.0292683-.58536585.0292683-.96585366-.7024391.87804878-1.43414637 1.63902439-2.1365854 2.28292684-.02926829.1756097-.11707317.3219512-.29268292.3219512h-.05853659c-.73170732.6731707-1.46341463 1.2292683-2.16585366 1.7268293-.73170732 1.404878-1.6097561 2.7804878-2.60487805 4.097561.08780488.2634146.17560976.5268292.26341464.8195121 1.96097561-.702439 4.27317073-2.0195121 6.35121948-4.4487804 0 0-2.04878046 4.5951219-5.76585363 5.8829268.35121951.0585366.76097561.0878049 1.17073171.0878049.93658536 0 2.04878049-.1756098 3.24878049-.6146342 5.53170733-6.3219512 5.82439023-14.39999998 5.79512193-16.3317073"/><path d="m3.51219512 14.4c.05.1818182.15.3636364.2.5-.1-.1363636-.15-.3181818-.2-.5"/><path d="m3.62926829 14.7512195c.11707317.3512195.29268293.8487805.46829269 1.4341464-.20487805-.5853659-.35121952-1.0829269-.46829269-1.4341464m-.11707317-.3512195c.02926829.1170732.08780488.2341463.11707317.3219512-.05853658-.0878049-.08780488-.204878-.11707317-.3219512"/><path d="m6.70243902 12.0878049c-.11707317.0878049-.23414634.1756097-.35121951.2341463-.99512195.8780488-1.9902439 1.5512195-2.83902439 2.0780488.02926829.1170732.08780488.2341463.11707317.3219512.11707317.3512195.29268293.8487805.46829269 1.4341464.99512195-1.2878049 1.84390243-2.6634147 2.60487804-4.0682927"/><path d="m3.36585366 13.9902439.05.15z"/><path d="m3.36585366 13.9902439.05.15z"/><path d="m3.81585366 13.8731707c-.15.1-.3.15-.45.2l.05.15c.1-.15.25-.25.4-.35"/><path d="m5.47317073 20.6634146.05.1.1-.05z"/></g><path d="m16.7707317 15.7756098c-.1463415.0292682-.2926829.0585365-.4390244.0585365.1170732-.0292683.2926829-.0292683.4390244-.0585365m-.9365854-.0292683c.1170732.0292683.2341464.0585365.3219513.0585365-.1170732 0-.2341464-.0292682-.3219513-.0585365m4.9756098-2.4292683c-.5560976.2341463-1.0829268.5853658-1.4926829.907317.4097561-.3512195.9365853-.6731707 1.4926829-.907317" fill="#fcee34"/><path d="m7.40487805 23.7658537c.26341463.204878.52682927.3804878.81951219.4975609-.29268292-.1170731-.55609756-.2926829-.81951219-.4975609m8.75121955-7.9609757h.1463414c-.0292683 0-.0878049 0-.1463414 0m3.1609756-1.5512195c-.6439025.5560976-1.6390244 1.3170732-2.5463415 1.5219513.9073171-.2048781 1.8731707-.9658537 2.5463415-1.5219513m1.5512195-.9658536-.0585366.0292683z" fill="#d14998"/><path d="m20.8682927 13.2878049-.0585366.0292683c-.5560976.2341463-1.0829268.5853658-1.4926829.907317-.6439025.5560976-1.6390244 1.3170732-2.5463415 1.5219513-.1463415.0292683-.2926829.0585365-.4390244.0585365-.0585366 0-.1170732 0-.1463414 0-.1170732 0-.2341464-.0292682-.3219513-.0585365-.4975609.6439024-1.0536585 1.2585365-1.5804878 1.8146341-1.404878 2.3414634-3.5414634 4.595122-6.81951217 6.2048781.26341464.204878.52682927.3804878.8195122.4975609 3.92195117-1.1121951 9.92195117-3.9219512 12.58536587-10.9756097" fill="#d14998"/><path d="m11.5609756 1.84390244v.15z" fill="#fff"/><path d="m11.4219512 4.36097561v.14634146c0-.05853658 0-.08780487 0-.14634146m-.3-3.39512195c.4.7902439.4 1.96097561.3 2.60487805.1-.67317073.1-1.81463415-.3-2.60487805" fill="#fcee34"/><path d="m8.31219512 9.24878049c.02926829.20487805.08780488.58536585.20487805.84878051-.11707317-.26341466-.17560976-.64390246-.20487805-.84878051m.90731708-2.4c0 .64390244-.05853659 1.28780488-.05853659 1.90243902.02926829-.61463414.05853659-1.25853658.05853659-1.90243902" fill="#fcee34"/><path d="m6.33780488 11.1804878c0 .3219512-.1.6731707-.25.9073171.2-.2341464.25-.5853659.25-.9073171" fill="#fcee34"/><path d="m3.39512195 14.0780488c.05.1666666.15.3333333.2.5-.1-.1666667-.15-.3333334-.2-.5" fill="#76ccdd"/><path d="m9.1902439 8.7804878v.4390244c0-.14634147 0-.29268293 0-.4390244m2.1073171-5.20975609c0 .20487805-.0292683.49756097-.0292683.7902439.0292683-.32195122.0292683-.58536585.0292683-.7902439" fill="#ffcc0a"/><path d="m11.1219512.96585366c-.2926829 1.25853658-.8487805 3.24878049-1.902439 5.44390244v.46829268c0 .64390244-.05853659 1.28780488-.05853659 1.90243902v.4390244c.93658539-1.34634147 1.69756099-2.89756098 2.10731709-4.68292683 0-.05853659 0-.08780488 0-.14634147 0-.32195122 0-.58536585.0292683-.7902439v-.02926829c.0585366-.67317073.0585366-1.81463415-.1756098-2.60487805" fill="#ffcc0a"/><path d="m8.22439024 8.8097561c.05.16666666.1.33333333.15.5-.05-.16666667-.1-.33333334-.15-.5" fill="#ffcc0a"/><path d="m8.22439024 8.8097561c-.40975609 1.02439024-.90731707 2.0780488-1.46341463 3.1317073.61463415-.5560975 1.2-1.1707317 1.75609756-1.8439024-.14634146-.26341466-.17560976-.64390246-.20487805-.84878051-.02926829-.14634147-.05853658-.29268293-.08780488-.43902439" fill="#ffcc0a"/><path d="m6.11707317 12.0878049c-.05853658.1463414-.11707317.2634146-.23414634.2926829-.08780488.0292683-.17560976.0292683-.26341463.0292683-.14634147 0-.26341464-.0292683-.35121952-.1170732.08780488.0585366.20487805.1170732.35121952.1170732.08780487 0 .17560975 0 .26341463-.0585366.08780488-.0292683.17560976-.1170732.23414634-.2634146m2.0195122-3.62926831c.02926829.11707317.05853658.23414634.08780487.35121951-.02926829-.11707317-.05853658-.23414634-.08780487-.35121951" fill="#ffcc0a"/><path d="m8.13658537 8.45853659c-.52682927.90731707-1.17073171 1.81463411-1.90243903 2.72195121 0 .3219512-.05853658.6731707-.14634146.9073171-.05853659.1463414-.11707317.2634146-.23414634.2926829-.08780488.0292683-.17560976.0585366-.26341464.0585366-.14634146 0-.26341463-.0292683-.35121951-.1170732-.49756098.5560976-1.05365854 1.0829268-1.63902439 1.5804878.70243902-.3219512 1.63902439-.8195122 2.72195122-1.5512195.14634146-.1170732.29268293-.2634146.43902439-.3804878.55609756-1.0536585 1.02439024-2.10731707 1.46341463-3.13170731-.02926829-.14634146-.05853658-.26341463-.08780487-.3804878" fill="#ffcc0a"/><path d="m3.39512195 14.0780488c.05.1666666.15.3333333.2.5-.1-.1666667-.15-.3333334-.2-.5" fill="#ffcc0a"/><path d="m3.39512195 14.0780488c.05.1666666.15.3333333.2.5-.1-.1666667-.15-.3333334-.2-.5" fill="#ffcc0a"/><path d="m6.35121951 12.3219512c-1.05365853.702439-2.01951219 1.2-2.72195122 1.5512195-.08780488.0585366-.14634146.1463415-.23414634.2048781.02926829.1170732.08780488.2341463.11707317.3512195.84878049-.5560976 1.84390244-1.2292683 2.83902439-2.1073171" fill="#ffcc0a"/><path d="m4.33170732 17.004878c.16666666.4390244.33333333.9365854.5 1.4048781-.2-.497561-.36666667-.9658537-.5-1.4048781" fill="#76ccdd"/><path d="m10.6829268 12.5560976c-2.10731704 2.4292683-4.39024387 3.7463414-6.35121948 4.4487804.14634146.4390244.29268292.9365854.43902439 1.4048781.05853658 0 .11707317.0292683.17560975.0292683 3.68780488-1.2878049 5.73658534-5.8829268 5.73658534-5.8829268" fill="#d14998"/><path d="m15.6 15.6292683c.1.05.25.1.4.15-.15 0-.3-.05-.4-.15" fill="#fcee34"/><path d="m6.32195122 22.5658537c.05853658.0878048.14634146.204878.20487805.2926829-.05853659-.0878049-.11707317-.2048781-.20487805-.2926829m-.64390244-1.3463415.02926829.0585366z" fill="#fcee34"/><path d="m5.50243902 20.7219512c.1.1764706.2.3529412.3.5-.1-.1470588-.2-.3235294-.3-.5" fill="#76ccdd"/><path d="m14.2536585 12.4682927v.1170732c.0292683.6146341.2048781 1.3463414.4682927 1.9609756-.2634146-.6146342-.4390244-1.3170732-.4682927-1.9609756 0-.0585366 0-.0878049 0-.1170732m1.6390244-10.91707319c.6731708.32195122.7902439 1.14146342.292683 3.68780488-.3512196 1.78536585-.7024391 3.57073171-1.3170732 5.26829271.6146341-1.697561.9951219-3.51219515 1.3170732-5.26829271.4975609-2.51707317.3804878-3.36585366-.292683-3.68780488" fill="#cbdb2b"/><path d="m15.8926829 1.55121951c-.2341463 2.8097561-1.3170731 11.15121949-6.35121949 16.27317069 1.52195119-.5853658 3.27804879-1.6097561 5.18048779-3.307317-.2634146-.6146342-.4390244-1.3170732-.4682927-1.9609756 0-.0292683 0-.0878049 0-.1170732 0-.2634146.0292683-.4682927.1170732-.702439.1170732-.4097561.3512195-.7609756.497561-1.2292683.6146341-1.697561.9951219-3.51219515 1.3170732-5.26829271.4975609-2.51707317.3804878-3.36585366-.292683-3.68780488" fill="#cbdb2b"/><path d="m5.67804878 21.2780488c.14634146.4390244.38048781.8780488.64390244 1.2585366-.26341463-.3804878-.46829268-.8195122-.64390244-1.2585366m9.10243902-6.6146342c.0585366.0878049.0878049.1756098.1463415.2634147.1170731.204878.2634146.3804878.3804878.4975609-.1463415-.1170731-.2634147-.2926829-.3804878-.4975609-.0585366-.0878049-.0878049-.1756098-.1463415-.2634147" fill="#cbdb2b"/><path d="m14.7804878 14.6634146c-.9951219 1.492683-4.3902439 6.2048781-8.01951219 6.2048781-.17560976 0-.38048781 0-.58536585-.0292683-.17560976.1170732-.35121952.2634146-.52682927.3804878l.02926829.0585366c.14634146.4390244.38048781.8780488.64390244 1.2585366.05853658.0878048.14634146.204878.20487805.2926829 1.40487805-.5853659 4.74146343-2.2536585 7.69756093-5.2682927.4097561-.702439.7902439-1.404878 1.0829269-2.1365854-.1463415-.1170731-.2634147-.2926829-.3804878-.4975609-.0585366-.0878049-.0878049-.1756098-.1463415-.2634147" fill="#cbdb2b"/><path d="m5.56097561 20.6926829-.05853659.0292683c.05853659.1756098.11707318.3512195.17560976.497561.17560976-.1170732.35121951-.2634146.52682927-.3804878-.20487805-.0292683-.43902439-.0878049-.64390244-.1463415" fill="#cbdb2b"/><path d="m15.3073171 15.4243902c.15.15.3.25.5.35-.15-.05-.35-.2-.5-.35" fill="#cbdb2b"/><path d="m15.3073171 15.4243902c-.292683.7024391-.6439025 1.4048781-1.0829269 2.1365854.5560976-.5560976 1.0829269-1.1707317 1.5804878-1.8146341-.0878048-.0292683-.1463414-.0585366-.2341463-.0878049-.0585366-.0585366-.1756097-.1463415-.2634146-.2341464" fill="#cbdb2b"/><path d="m14.7219512 14.5170732c.05.1.05.15.1.25-.05-.05-.05-.15-.1-.25" fill="#cbdb2b"/><path d="m4.77073171 18.4682927c.15.2634146.3.5268293.4.7902439-.1-.2634146-.25-.5268293-.4-.7902439" fill="#76ccdd"/><path d="m4.74146341 18.3804878.05.15z" fill="#76ccdd"/><path d="m9.54146341 17.8243902c-.05853658.0292683-.11707317.0292683-.17560975.0585366-.20487805.2341464-.43902439.4682927-.64390244.7317073.29268293-.2634146.55609756-.4975609.81951219-.7902439" fill="#0598cc"/><path d="m5.03414634 19.2585366c.16666667.497561.36666667.9658536.5 1.404878-.16666667-.4390244-.33333333-.907317-.5-1.404878" fill="#0598cc"/><path d="m9.36585366 17.8829268c-1.22926829.4390244-2.31219512.6146342-3.24878049.6146342-.4097561 0-.81951219-.0292683-1.17073171-.0878049-.05853658.0292683-.08780487.0292683-.14634146.0585366.08780488.2634146.17560976.5268293.23414634.7902439.14634146.497561.32195122.9658536.43902439 1.404878l.08780488.0292683c1.17073171-.5560975 2.22439024-1.2585366 3.16097561-2.0780488.23414634-.2341463.43902439-.4682926.64390244-.7317073" fill="#0598cc"/><path d="m4.74146341 18.3804878.05.15z" fill="#0598cc"/><path d="m4.74146341 18.3804878.05.15c.1-.05.15-.05.25-.1-.1 0-.2 0-.3-.05" fill="#0598cc"/><path d="m14.7219512 14.5170732c.05.1.05.15.1.25-.05-.05-.05-.15-.1-.25" fill="#0598cc"/><path d="m14.7219512 14.5170732c-1.902439 1.6975609-3.6292683 2.7219512-5.18048779 3.307317-.26341463.2634147-.55609756.5268293-.81951219.7902439-.76097561.7902439-1.58048781 1.5219513-2.51707317 2.2243903.20487805.0292683.3804878.0292683.58536585.0292683 3.6292683 0 7.0243902-4.7121951 8.0195122-6.2048781-.0585366-.0292683-.0585366-.0878048-.0878049-.1463414" fill="#0598cc"/><path d="m8.72195122 18.6146341c-.93658537.8195122-1.9902439 1.5219513-3.16097561 2.0780488.20487805.0585366.43902439.1170732.64390244.1463415.93658536-.702439 1.75609756-1.4341464 2.51707317-2.2243903" fill="#0598cc"/><path d="m6.17560976 1.78536585c.14634146.08780488.29268292.26341464.43902439.46829269.05853658.08780487.11707317.20487805.17560975.29268292-.05853658-.11707317-.11707317-.20487805-.17560975-.29268292-.14634147-.23414634-.29268293-.38048781-.43902439-.46829269" fill="#fcee34"/><path d="m6.7902439 2.57560976c.1.18181818.2.31818181.25.5-.1-.18181819-.15-.36363637-.25-.5" fill="#fcee34"/><path d="m2.25365854 7.31707317c.26341463.35121951.49756097.73170732.70243902 1.08292683-.23414634-.35121951-.43902439-.70243902-.70243902-1.08292683m-.8195122-.70243902c.17560976.05853658.35121951.20487805.52682927.3804878-.17560976-.17560975-.35121951-.29268293-.52682927-.3804878m3.54146342-1.87317074c.05853658.29268293.08780487.58536586.14634146.90731708-.05853659-.32195122-.11707317-.61463415-.14634146-.90731708" fill="#fcee34"/><path d="m5.12195122 5.64878049c.1.29268292.2.61463414.3.93658536-.1-.32195122-.2-.64390244-.3-.93658536" fill="#76ccdd"/><path d="m.33941666 7.17073171c-.1350154.35121951 0 .81951219.45005132 1.37560975-.45005132-.55609756-.58506672-1.05365853-.45005132-1.37560975" fill="#fcee34"/><path d="m4.82926829 3.80487805c.05.26341463.15.58536585.25.93658536-.1-.35121951-.2-.64390243-.25-.93658536" fill="#0598cc"/><path d="m6.17560976 1.78536585c-.43902439.79024391-.87804878 1.46341464-1.34634147 2.04878049.0292683.26341464.08780488.58536586.14634147.93658537.05853658.29268292.08780487.58536585.14634146.90731707.73170732-1.11219512 1.25853658-2.19512195 1.66829268-3.10243902-.05853658-.11707317-.11707317-.23414635-.17560975-.32195122-.14634147-.23414634-.29268293-.38048781-.43902439-.46829269" fill="#0598cc"/><path d="m6.7902439 2.57560976c.1.18181818.2.31818181.25.5-.1-.18181819-.15-.36363637-.25-.5" fill="#0598cc"/><path d="m6.7902439 2.57560976c-.3804878.90731707-.93658536 1.96097561-1.66829268 3.10243902.05853658.29268293.11707317.61463415.17560976.93658537.76097561-1.05365854 1.28780487-2.4 1.63902439-3.68780488-.05853659-.14634147-.08780488-.26341464-.14634147-.35121951" fill="#0598cc"/><path d="m.38048781 7.03678862c-.0292683.04166666-.0292683.125-.0292683.20833333 0-.08333333 0-.16666667.0292683-.20833333m1.5804878-.04166667c.08780488.125.20487805.29166667.29268293.5-.08780488-.20833333-.20487805-.375-.29268293-.5" fill="#0598cc"/><path d="m1.43414634 6.61463415c-.35121951.17560975-.73170732.29268292-1.05365853.40975609-.0292683.0292683-.0292683.08780488-.0292683.14634147-.08780488.35121951 0 .81951219.29268293 1.37560975.35121951.05853659.67317073.08780488.99512195.08780488h.02926829c.49756098 0 .93658537-.08780488 1.34634147-.20487805-.20487805-.3804878-.43902439-.73170731-.70243903-1.08292683-.08780488-.11707317-.20487805-.23414634-.29268292-.35121951-.23414635-.17560975-.4097561-.29268293-.58536586-.3804878" fill="#0598cc"/><path d="m12.0878049 10.5073171c-.4097561.702439-1.1121951 1.2292683-2.28292685 1.3756097 0 0 .90731705-.5268292 1.69756095-1.7560975.1756098.2634146.3804878.3804878.5853659.3804878z" fill="#f06723"/></g></svg>