<svg width="24px" height="24px" viewBox="0 0 24 24">
  <g stroke="none" stroke-width="1" fill="none" fill-rule="evenodd">
    <g fill="#333333">
      <g transform="translate(1.000000, 1.000000)">
        <path d="M11,22 C4.92486775,22 0,17.0751322 0,11 C0,4.92486775 4.92486775,0 11,0 C17.0751322,0 22,4.92486775 22,11 C22,17.0751322 17.0751322,22 11,22 Z M11,21 C16.5228475,21 21,16.5228475 21,11 C21,5.4771525 16.5228475,1 11,1 C5.4771525,1 1,5.4771525 1,11 C1,16.5228475 5.4771525,21 11,21 Z M9,8.5 L12,8.5 L12,16.5 L13,16.5 L13,17 L9,17 L9,16.5 L10,16.5 L10,9 L9,9 L9,8.5 Z M10.75,7 C10.0596441,7 9.5,6.44035594 9.5,5.75 C9.5,5.05964406 10.0596441,4.5 10.75,4.5 C11.4403559,4.5 12,5.05964406 12,5.75 C12,6.44035594 11.4403559,7 10.75,7 Z"></path>
      </g>
    </g>
  </g>
</svg>
