<?xml version="1.0" encoding="UTF-8"?>
<svg width="100pt" height="100pt" version="1.1" viewBox="0 0 100 100" xmlns="http://www.w3.org/2000/svg">
 <path d="m64.934 12.852c-4.7461-1.9102-9.7695-2.8789-14.934-2.8789-20.172 0-37.246 15.07-39.723 35.059-0.20312 1.6328-0.30469 3.3086-0.30469 4.9727 0 22.07 17.957 40.027 40.027 40.027 7.9805 0 15.414-2.3555 21.664-6.3945 0.22266-0.078125 0.42578-0.20312 0.58203-0.375 10.719-7.1914 17.785-19.414 17.785-33.258-0.003906-16.438-9.8516-31.023-25.098-37.152zm-14.934 74.176c-7.2383 0-13.988-2.0977-19.699-5.6992 0.023438-0.10547 0.039063-0.21484 0.039063-0.32422 0-1.0703 0.10156-3.1992 0.26172-4.0977 1.8242-10.125 12.938-11.637 19.398-11.637 5.4648 0 18.312 1.2461 19.566 12.777 0.023438 0.23828 0.054688 1.5586 0.078125 3.3203-5.6953 3.582-12.43 5.6602-19.645 5.6602zm22.609-7.7305c-0.019531-0.75781-0.035156-1.3594-0.0625-1.5703-1.0547-9.6797-9.4844-15.457-22.547-15.457-12.773 0-20.711 5.0117-22.355 14.109-0.12891 0.73438-0.21484 1.8867-0.26172 2.9102-8.7578-6.7773-14.414-17.383-14.414-29.285 0-1.543 0.09375-3.0938 0.28516-4.6055 2.2891-18.488 18.086-32.426 36.746-32.426 4.7773 0 9.4258 0.89453 13.812 2.6602 14.102 5.6719 23.215 19.164 23.215 34.367 0 11.91-5.6562 22.52-14.418 29.297zm-22.609-49.824c-7.3633 0-12.508 5.4922-12.508 13.352 0 8.2969 5.6094 15.047 12.508 15.047 6.8945 0 12.508-6.75 12.508-15.047 0-7.8594-5.1445-13.352-12.508-13.352zm0 25.395c-5.2422 0-9.5078-5.4023-9.5078-12.047 0-6.1914 3.8203-10.352 9.5078-10.352s9.5078 4.1602 9.5078 10.352c0 6.6445-4.2656 12.047-9.5078 12.047z"/>
</svg>
