<?xml version="1.0" encoding="UTF-8"?>
<svg width="24px" height="24px" viewBox="0 0 24 24">
    <g id="icon/question-book" stroke="none" stroke-width="1" fill="none" fill-rule="evenodd">
        <g id="Group-2" transform="translate(5.000000, 2.000000)">
            <g id="Group">
                <polygon id="Rectangle-1670" stroke="#333333" fill="#FFFFFF" stroke-linecap="round" stroke-linejoin="round" points="0 0 11.0655102 2.04366012e-16 15 4.44346248 15 19.9621928 0 19.9621928"></polygon>
                <polyline id="Line" stroke="#333333" stroke-linecap="round" stroke-linejoin="round" points="11 0 11 4.24264069 14.8400002 4.24264069"></polyline>
                <path d="M3.20546862,9.82879361 C3.20546862,9.67607517 3.26389412,9.55112559 3.38074687,9.45394113 C3.49759962,9.35675666 3.65205118,9.30816516 3.84410619,9.30816516 C4.03847511,9.30816516 4.19466209,9.35617819 4.31267179,9.4522057 C4.4306815,9.5482332 4.48968546,9.67376125 4.48968546,9.82879361 C4.48968546,9.98382597 4.43010303,10.1099325 4.31093636,10.2071169 C4.1917697,10.3043014 4.0361612,10.3528929 3.84410619,10.3528929 C3.65436509,10.3528929 3.500492,10.3037229 3.3824823,10.2053815 C3.26447259,10.1070401 3.20546862,9.98151205 3.20546862,9.82879361 Z M3.38874169,7.50882212 C3.38874169,7.28858005 3.42646777,7.11524398 3.50192107,6.98880872 C3.57737438,6.86237345 3.70686662,6.75225407 3.89040168,6.65844726 C4.00052271,6.60134746 4.16366254,6.5218168 4.37982606,6.41985287 C5.18330177,6.04870419 5.5850336,5.6143444 5.5850336,5.11676045 C5.5850336,4.74153322 5.45248249,4.43666566 5.18737629,4.20214864 C4.92227009,3.96763162 4.57355871,3.85037486 4.14123167,3.85037486 C3.85573269,3.85037486 3.59266971,3.88810095 3.35203486,3.96355425 C3.1114,4.03900756 2.96457415,4.12159709 2.91155291,4.21132535 C2.89931724,4.23579669 2.88708175,4.29493488 2.87484608,4.38874169 C2.84221763,4.75581181 2.69743103,4.93934412 2.44048194,4.93934412 C2.30588957,4.93934412 2.19882905,4.89040217 2.11929719,4.7925168 C2.03976533,4.69463144 2,4.56411957 2,4.40097729 L2,3.80143243 C2,3.5771118 2.22023877,3.38746174 2.66072292,3.23247658 C3.10120706,3.07749142 3.63752925,3 4.26970557,3 C4.95082458,3 5.50448037,3.19780704 5.93068957,3.59342706 C6.35689877,3.98904708 6.57000017,4.5008983 6.57000017,5.12899606 C6.57000017,5.63065856 6.3966641,6.0538025 6.04998677,6.39844056 C5.70330943,6.74307862 5.12212379,7.0662994 4.3064124,7.36811261 L4.3064124,7.857537 C4.3064124,7.99212937 4.2635882,8.10122914 4.1779385,8.18483955 C4.09228881,8.26844997 3.98013017,8.31025455 3.84145924,8.31025455 C3.69870975,8.31025455 3.58757074,8.27150884 3.50803888,8.19401626 C3.42850702,8.11652368 3.38874169,8.00844354 3.38874169,7.86977261 L3.38874169,7.50882212 Z" id="?" fill="#333333"></path>
                <path d="M3,13 L5,13" id="Line-2" stroke="#333333" stroke-linecap="round" stroke-linejoin="round"></path>
                <path d="M3,15 L12,15" id="Line-2" stroke="#333333" stroke-linecap="round" stroke-linejoin="round"></path>
                <path d="M3,17 L12,17" id="Line-2" stroke="#333333" stroke-linecap="round" stroke-linejoin="round"></path>
            </g>
        </g>
    </g>
</svg>
