<?xml version="1.0" encoding="UTF-8"?>
<svg width="24px" height="24px" viewBox="0 0 24 24">
    <g id="Assets" stroke="none" stroke-width="1" fill="none" fill-rule="evenodd">
        <g id="icon/question-blue">
            <circle id="Oval-1-Copy-2" stroke="#21ABF3" fill="#FFFFFF" stroke-linecap="round" stroke-linejoin="round" cx="12" cy="12" r="9"></circle>
            <path d="M10.4146988,16.2248195 C10.4146988,15.8808285 10.5462995,15.5993855 10.8095047,15.3804821 C11.07271,15.1615788 11.4206048,15.0521287 11.8531995,15.0521287 C12.2910063,15.0521287 12.64281,15.1602758 12.9086212,15.3765732 C13.1744325,15.5928705 13.3073361,15.8756165 13.3073361,16.2248195 C13.3073361,16.5740225 13.1731295,16.8580714 12.9047123,17.0769748 C12.636295,17.2958782 12.2857943,17.4053282 11.8531995,17.4053282 C11.4258167,17.4053282 11.0792249,17.2945752 10.8134137,17.0730658 C10.5476024,16.8515565 10.4146988,16.5688105 10.4146988,16.2248195 Z M11.2746721,13.2618208 C11.2746721,12.9803736 11.3228822,12.7588675 11.4193039,12.597296 C11.5157257,12.4357244 11.6812037,12.295003 11.915743,12.1751273 C12.0564666,12.1021595 12.2649429,12.0005273 12.5411781,11.8702277 C13.5679392,11.395937 14.081312,10.840869 14.081312,10.2050068 C14.081312,9.72550413 13.9119251,9.33591409 13.573146,9.03622494 C13.234367,8.73653579 12.7887489,8.58669347 12.2362785,8.58669347 C11.8714396,8.58669347 11.5352716,8.63490361 11.2277644,8.73132533 C10.9202573,8.82774706 10.7326287,8.93328817 10.6648729,9.04795185 C10.6492369,9.07922376 10.6336012,9.15479641 10.6179652,9.27467207 C10.5762693,9.74375073 10.3912466,9.97828654 10.0628916,9.97828654 C9.89089607,9.97828654 9.75408351,9.91574366 9.6524498,9.79065602 C9.55081609,9.66556837 9.5,9.49878735 9.5,9.29030795 L9.5,8.52414996 C9.5,8.23749078 9.78144298,7.9951371 10.3443374,7.79708167 C10.9072318,7.59902623 11.5925975,7.5 12.4004552,7.5 C13.2708567,7.5 13.9783731,7.75277749 14.5230256,8.25834005 C15.067678,8.76390261 15.3400002,9.41799693 15.3400002,10.2206426 C15.3400002,10.8617168 15.1184941,11.4024522 14.6754754,11.8428649 C14.2324566,12.2832777 13.4897599,12.6963213 12.4473629,13.0820082 L12.4473629,13.7074433 C12.4473629,13.8794388 12.3926378,14.0188573 12.2831862,14.125703 C12.1737345,14.2325487 12.030407,14.2859707 11.8531995,14.2859707 C11.67078,14.2859707 11.5287556,14.2364576 11.4271219,14.1374299 C11.3254882,14.0384022 11.2746721,13.9002866 11.2746721,13.7230791 L11.2746721,13.2618208 Z" id="?" fill="#21ABF3"></path>
        </g>
    </g>
</svg>
