<svg xmlns="http://www.w3.org/2000/svg" width="24" height="24" viewBox="0 0 24 24">
    <path fill="#333" fill-rule="evenodd" d="M7.296 11.937h.278c.755 0 1.433.288 2.036.864.602.576.903 1.294.903 2.154 0 .848-.301 1.546-.903 2.095-.603.55-1.347.824-2.234.824-.967 0-1.77-.387-2.413-1.161C4.321 15.938 4 14.836 4 13.407c0-1.311.281-2.539.844-3.684s1.25-2.052 2.065-2.72C7.723 6.334 8.448 6 9.083 6c.424 0 .755.126.993.377.238.252.358.576.358.973 0 .583-.259 1.013-.775 1.291-.701.384-1.257.834-1.668 1.35-.41.516-.642 1.165-.695 1.946zm8.777 0h.258c.741 0 1.413.288 2.016.864.602.576.903 1.294.903 2.154 0 .834-.301 1.536-.903 2.105-.603.57-1.347.854-2.234.854-.98 0-1.787-.397-2.423-1.191-.635-.795-.953-1.9-.953-3.316 0-1.02.165-1.98.496-2.88.331-.9.758-1.684 1.281-2.353.523-.668 1.086-1.198 1.688-1.588.602-.39 1.142-.586 1.618-.586.437 0 .771.122 1.003.367.232.245.348.573.348.983 0 .596-.259 1.026-.775 1.291-.728.41-1.277.864-1.648 1.36-.37.497-.596 1.142-.675 1.936z"/>
</svg>
