<?xml version="1.0" encoding="UTF-8"?>
<svg width="94px" height="68px" viewBox="0 0 94 68" version="1.1" xmlns="http://www.w3.org/2000/svg" xmlns:xlink="http://www.w3.org/1999/xlink">
    <!-- Generator: Sketch 49.3 (51167) - http://www.bohemiancoding.com/sketch -->
    <title>speaker</title>
    <desc>Created with Sketch.</desc>
    <defs></defs>
    <g id="Page-1" stroke="none" stroke-width="1" fill="none" fill-rule="evenodd">
        <g id="speaker" fill="#000000">
            <path d="M42.008,6.785 C40.9728,6.18344 39.7111,6.18344 38.6799,6.77328 L16.1139,19.66828 L3.6689,19.66828 C1.8291,19.66828 0.3369,21.15658 0.3369,23.00028 L0.3369,43.00028 C0.3369,44.84408 1.8291,46.33228 3.6689,46.33228 L16.1139,46.33228 L38.6799,59.22728 C39.19162,59.52025 39.7619,59.66869 40.3322,59.66869 C40.91032,59.66869 41.4884,59.52025 42.0041,59.21947 C43.0353,58.62181 43.6682,57.52027 43.6682,56.33277 L43.6682,9.66877 C43.6682,8.48127 43.03539,7.37967 42.008,6.78597 L42.008,6.785 Z" id="main"></path>
            <path d="M51.578,20.402 C50.1405,21.5543 49.9139,23.6559 51.06628,25.0895 C54.51548,29.3747 54.51548,36.6245 51.06628,40.9095 C49.91398,42.347 50.1405,44.4447 51.578,45.597 C52.19128,46.09309 52.9296,46.33138 53.6678,46.33138 C54.64046,46.33138 55.6092,45.9056 56.2694,45.08918 C61.7186,38.30798 61.7186,27.69118 56.2694,20.90918 C55.1092,19.47948 53.0116,19.25298 51.578,20.40137 L51.578,20.402 Z" id="wave1"></path>
            <path d="M64.40228,15.0895 C72.34368,24.9645 72.34368,41.0305 64.40228,50.9095 C63.24998,52.347 63.4765,54.4447 64.914,55.597 C65.52728,56.09309 66.2617,56.33138 66.9999,56.33138 C67.97256,56.33138 68.9413,55.9056 69.6015,55.08918 C79.3945,42.90918 79.3945,23.08918 69.6015,10.90918 C68.4413,9.47948 66.3476,9.25298 64.914,10.40137 C63.4765,11.5543 63.2499,13.6559 64.40228,15.0895 Z" id="wave2"></path>
            <path d="M82.93,1.91 C81.7777,0.4803 79.68,0.2538 78.2425,1.40219 C76.805,2.55449 76.5784,4.65609 77.73078,6.08969 C90.10578,21.48069 90.10578,46.51969 77.73078,61.90969 C76.57848,63.34719 76.805,65.44489 78.2425,66.59719 C78.85969,67.09328 79.598,67.33157 80.3323,67.33157 C81.30496,67.33157 82.2737,66.90579 82.9339,66.08937 C97.1569,48.39437 97.1569,19.60537 82.92999,1.90937 L82.93,1.91 Z" id="wave3"></path>
        </g>
    </g>
</svg>