
<svg width="101px" height="121px" viewBox="0 0 101 121" version="1.1" xmlns="http://www.w3.org/2000/svg" xmlns:xlink="http://www.w3.org/1999/xlink">
    <defs>
        <filter x="-36.1%" y="-32.8%" width="172.1%" height="172.1%" filterUnits="objectBoundingBox" id="filter-1">
            <feOffset dx="0" dy="2" in="SourceAlpha" result="shadowOffsetOuter1"></feOffset>
            <feGaussianBlur stdDeviation="7" in="shadowOffsetOuter1" result="shadowBlurOuter1"></feGaussianBlur>
            <feColorMatrix values="0 0 0 0 0   0 0 0 0 0   0 0 0 0 0  0 0 0 0.52587183 0" type="matrix" in="shadowBlurOuter1" result="shadowMatrixOuter1"></feColorMatrix>
            <feMerge>
                <feMergeNode in="shadowMatrixOuter1"></feMergeNode>
                <feMergeNode in="SourceGraphic"></feMergeNode>
            </feMerge>
        </filter>
    </defs>
    <g id="Page-1" stroke="none" stroke-width="1" fill="none" fill-rule="evenodd">
        <g id="Group-2">
            <g id="Page-1" fill="#000000" opacity="0.645493659">
                <path d="M70.3257527,7.29117649 C71.3683053,7.29117649 72.2786348,8.20150596 72.2786348,9.24405856 C72.2786348,10.2866112 71.3683053,11.1969406 70.3257527,11.1969406 L7.70593812,11.1969406 C6.66338551,11.1969406 5.75305604,10.2866112 5.75305604,9.24405856 C5.75305604,8.20150596 6.66338551,7.29117649 7.70593812,7.29117649 L70.3257527,7.29117649 Z M49.3674223,91.9160663 C49.3674223,92.567027 49.2351992,93.2179877 49.2351992,93.8689483 C49.2351992,94.519909 49.2351992,95.1708697 49.3674223,95.8218304 L13.4317884,95.8218304 C6.27122075,95.8218304 0.54484975,89.0528808 0.54484975,80.8497345 L0.54484975,9.24405856 C0.54484975,4.55505851 3.93192842,0.781569582 7.96476009,0.781569582 L73.9708722,0.781569582 C75.0134248,0.781569582 75.9237543,1.69189905 75.9237543,2.73445165 C75.9237543,3.77700426 75.0134248,4.68733373 73.9708722,4.68733373 L7.96476009,4.68733373 C6.01187801,4.68733373 4.45061389,6.77249101 4.45061389,9.24405856 C4.45061389,11.7156261 6.01187801,13.8007834 7.96476009,13.8007834 L74.1036682,13.8007834 C75.1462208,13.8007834 76.0565503,14.7111129 76.0565503,15.7536655 L76.0565503,69.2652381 C75.4055896,69.2652381 74.7546289,69.1330149 74.1036682,69.1330149 C73.4527075,69.1330149 72.8017468,69.1330149 72.1507861,69.2652381 L72.1507861,17.7065475 L7.96476009,17.7065475 C6.6628387,17.7065475 5.49319254,17.3149556 4.45061389,16.6639949 L4.45061389,80.850021 C4.45061389,86.9680099 8.48865325,91.9163527 13.4317884,91.9163527 L49.3674223,91.9160663 Z" id="Fill-2"></path>
            </g>
            <g id="Group" filter="url(#filter-1)" transform="translate(27.000000, 44.206996)">
                <path d="M30.6407907,0.948159738 C15.3913969,0.948159738 2.80537147,12.3704646 0.978330241,27.1256651 C0.82680607,28.3439254 0.748006674,29.5834429 0.748006674,30.8411144 C0.748006674,47.3512055 14.1307928,60.7308883 30.6377805,60.7308883 C47.1478716,60.7308883 60.5306577,47.3512055 60.5306577,30.8411144 C60.5336834,18.2737086 52.7785722,7.51860342 41.7932055,3.09646542 C38.3474135,1.70876748 34.5834759,0.948159738 30.6407907,0.948159738 Z" id="Page-1" fill="#9C9C9C"></path>
                <path d="M30.6405345,6.2001598 C18.0705038,6.2001598 7.69587979,15.6155323 6.18985504,27.778201 C6.06495411,28.7824093 6,29.80414 6,30.840835 C6,44.4500548 17.0313915,55.4788883 30.6380533,55.4788883 C44.2472731,55.4788883 55.2786645,44.4500548 55.2786645,30.840835 C55.2811586,20.4815591 48.8886431,11.6161573 39.8334375,7.97100189 C36.9930812,6.82712654 33.8904784,6.2001598 30.6405345,6.2001598 Z" id="Page-1" stroke="#2D2D2D" stroke-width="3" fill="#FFFFFF"></path>
                <path d="M31.5999138,31.8029002 L31.5999138,41.5226752 C31.5999138,42.0522588 31.1702459,42.4819267 30.6406624,42.4819267 C30.1110789,42.4819267 29.681411,42.0522588 29.681411,41.5226752 L29.681411,31.8029002 L19.961636,31.8029002 C19.4320525,31.8029002 19.0023846,31.3732323 19.0023846,30.8436488 C19.0023846,30.3140653 19.4320525,29.8843974 19.961636,29.8843974 L29.681411,29.8843974 L29.681411,20.1620644 C29.681411,19.6324808 30.1110789,19.2028129 30.6406624,19.2028129 C31.1702459,19.2028129 31.5999138,19.6324808 31.5999138,20.1620644 L31.5999138,29.8818394 L41.3196888,29.8843398 C41.8492724,29.8843398 42.2789403,30.3140077 42.2789403,30.8435913 C42.2789403,31.3706807 41.8492724,31.8028427 41.3196888,31.8028427 L31.5999138,31.8029002 Z" id="Path" fill="#000000"></path>
            </g>
        </g>
    </g>
</svg>
