<svg width="22px" height="21px" viewBox="0 0 22 21">
  <g id="Header" stroke="none" stroke-width="1" fill="none" fill-rule="evenodd" transform="translate(-957.000000, -27.000000)" stroke-linecap="round" stroke-linejoin="round">
      <g id="Group-2-Copy" transform="translate(946.000000, 20.000000)" stroke="#333333">
          <g id="icon/upload-copy" transform="translate(10.000000, 6.000000)">
              <g id="Group" transform="translate(1.000000, 2.000000)">
                  <g id="Group-2" transform="translate(12.000000, 0.000000)">
                      <path d="M-1.28847891,3.55401902 L5.3177709,3.55401902" id="Line" transform="translate(2.014646, 3.554019) scale(1, -1) rotate(90.000000) translate(-2.014646, -3.554019) "></path>
                      <polyline id="Rectangle-320" transform="translate(1.983194, 1.996310) scale(1, -1) rotate(-225.000000) translate(-1.983194, -1.996310) " points="0.699653977 0.669095946 3.2667336 0.669095946 3.2667336 3.32352374"></polyline>
                  </g>
                  <path d="M4.44314008,19.1090923 C2.31263334,19.1090923 0.585516389,17.3930467 0.585516389,15.276197 C0.585516389,13.1593474 2.31263334,11.4433017 4.44314008,11.4433017 C4.45834059,11.4433017 4.47352056,11.443389 4.48867952,11.4435633 C4.80053847,9.27638434 6.67630956,7.61040635 8.94370105,7.61040635 C10.7906538,7.61040635 12.3777559,8.71582762 13.0713951,10.2971196 C13.8263817,9.80987313 14.7271975,9.52685402 15.6945425,9.52685402 C18.3576759,9.52685402 20.5165721,11.6719111 20.5165721,14.3179732 C20.5165721,16.9640352 18.3576759,19.1090923 15.6945425,19.1090923 C15.5865199,19.1090923 15.4793268,19.1055631 15.3730739,19.0986143 L15.3730739,19.1090923 L4.44314008,19.1090923 Z" id="Oval-390"></path>
              </g>
          </g>
      </g>
  </g>
</svg>
