<svg width="24px" height="24px" viewBox="0 0 24 24">
    <g stroke="none" stroke-width="1" fill="none" fill-rule="evenodd" stroke-linecap="round" stroke-linejoin="round">
        <g stroke="#333333">
            <g transform="translate(3.000000, 3.000000)">
                <circle fill="#FFFFFF" cx="9" cy="9" r="9"></circle>
                <path id="user-says-shade-1" d="M10.7875833,3.73572444 C11.7512965,4.29260146 12.3938747,5.29238622 12.3938747,6.43314439 C12.3938747,6.57281088 12.3842426,6.7103642 12.3655682,6.84525023 C12.4947677,7.37210401 12.5655274,7.93866853 12.5666385,8.52880862 C12.5915361,8.52870357 12.6167494,8.53038076 12.6421349,8.53394846 C12.917969,8.57271441 13.1244552,8.83514197 13.0847741,9.11748827 L12.904729,10.3985755 C12.8651052,10.6805135 12.6025356,10.8774359 12.3183916,10.8375021 C12.2770449,10.8316912 12.2372564,10.8208548 12.1996216,10.8056792 C11.9683526,11.4768079 11.6374138,12.0641585 11.2346702,12.5276191 L11.2346702,15.3448276 L6.81477202,15.3448276 L6.81477202,12.5276191 C6.41015989,12.0620082 6.07802035,11.471355 5.84660802,10.7963323 C5.80953158,10.8112104 5.77035416,10.8218425 5.72965375,10.8275625 C5.44796181,10.8671518 5.18765814,10.6719288 5.14837628,10.3924238 L4.96988495,9.122392 C4.93054621,8.84248227 5.13525055,8.58231938 5.40870422,8.54388798 C5.43361325,8.54038724 5.45835505,8.53872256 5.48279157,8.53878985 C5.48311906,7.94505668 5.55394636,7.37507362 5.68387406,6.84525023 C5.66519969,6.7103642 5.65556754,6.57281088 5.65556754,6.43314439 C5.65556754,4.84950304 6.89394347,3.53754547 8.51070386,3.30506863 C8.9522085,3.15047722 9.85215125,2.86206897 10.4212728,2.86206897 C10.8161581,2.86206897 10.849952,3.30237203 10.7875833,3.73572444 Z" fill="#DDDDDD"></path>
                <path id="user-says-shade-2" d="M14.949839,15.6908619 C14.3173907,15.46618 13.1159107,15.0568113 11.8824214,14.7299531 L11.7092807,14.3448276 L6.34246234,14.3448276 L6.1693282,14.7299007 C4.9361934,15.0566661 3.73529751,15.4658684 3.10344828,15.6903543 C3.10344828,15.6903543 4.74319,17.9898142 9.03000069,17.9899979 C13.3168114,17.9901816 14.949839,15.6908619 14.949839,15.6908619 Z" fill="#DDDDDD"></path>
            </g>
        </g>
    </g>
</svg>
